<?xml version="1.0" standalone="no"?>
<!DOCTYPE svg PUBLIC "-//W3C//DTD SVG 20010904//EN"
 "http://www.w3.org/TR/2001/REC-SVG-20010904/DTD/svg10.dtd">
<svg version="1.0" xmlns="http://www.w3.org/2000/svg"
 width="1024.000000pt" height="1024.000000pt" viewBox="0 0 1024.000000 1024.000000"
 preserveAspectRatio="xMidYMid meet">
<metadata>
Created by potrace 1.14, written by Peter Selinger 2001-2017
</metadata>
<g transform="translate(0.000000,1024.000000) scale(0.100000,-0.100000)"
fill="#000000" stroke="none">
<path d="M55 10198 c21 -24 66 -71 101 -106 34 -35 72 -83 83 -107 23 -49 94
-146 134 -184 28 -26 88 -69 188 -135 57 -38 72 -43 122 -44 63 0 67 5 45 64
-10 27 -9 37 6 59 10 15 27 30 37 32 12 4 19 14 19 31 l0 25 21 -24 c12 -13
28 -38 35 -56 8 -18 35 -65 62 -104 26 -39 54 -81 62 -94 39 -59 58 -78 91
-95 39 -21 74 -79 65 -108 -5 -13 12 -31 69 -72 42 -29 131 -112 198 -183 148
-158 136 -145 170 -185 15 -19 46 -49 70 -68 23 -20 51 -43 62 -52 11 -9 43
-34 70 -56 28 -22 61 -50 74 -63 13 -13 28 -23 33 -23 12 0 0 58 -18 87 -16
25 -19 56 -5 51 16 -6 86 -73 123 -119 21 -25 49 -72 63 -105 15 -32 30 -67
36 -76 12 -23 12 -51 -1 -43 -5 3 -10 1 -10 -4 0 -6 5 -11 10 -11 6 0 10 -5
10 -11 0 -7 23 -58 52 -115 50 -101 56 -130 23 -103 -25 21 -127 127 -141 148
-17 23 -84 74 -90 68 -3 -2 18 -42 46 -88 53 -89 63 -139 38 -193 -24 -53 1
-94 143 -230 72 -69 175 -158 229 -198 103 -76 125 -102 108 -131 -30 -54
-162 22 -358 207 -30 28 -96 86 -147 129 -114 96 -168 165 -254 328 -15 27
-46 75 -70 107 -59 79 -271 286 -340 333 -32 21 -59 43 -61 48 -1 5 -23 25
-47 45 -29 25 -50 35 -62 31 -25 -8 -43 11 -73 78 -13 31 -42 75 -63 99 -22
24 -50 63 -62 88 -25 48 -109 156 -161 205 -18 17 -47 53 -65 80 -35 54 -128
153 -169 180 -14 9 -40 19 -58 22 -68 10 -102 36 -297 229 l-201 197 0 -3498
0 -3497 123 6 c67 3 181 8 252 11 234 9 494 32 555 50 8 2 61 7 118 10 57 4
113 8 125 11 12 2 75 9 140 14 66 6 122 12 125 14 4 2 41 7 82 10 41 4 100 11
130 16 79 13 217 19 540 25 157 3 301 7 320 9 19 3 90 7 157 11 68 4 145 13
173 20 29 8 52 9 56 4 3 -5 1 -9 -3 -9 -9 0 1 -163 12 -195 4 -11 12 -30 18
-43 8 -18 8 -25 -1 -31 -15 -9 -8 -33 21 -74 10 -16 17 -31 13 -34 -8 -8 10
-39 70 -119 39 -52 69 -80 111 -103 32 -18 79 -47 104 -65 54 -38 160 -75 249
-87 130 -16 189 -28 207 -39 15 -9 13 -10 -11 -5 -17 4 -112 6 -212 6 -110 -1
-185 3 -189 9 -4 6 -34 7 -78 3 -94 -8 -123 -8 -242 2 -127 11 -201 11 -242 2
-19 -4 -33 -3 -33 2 0 5 -19 9 -42 9 -72 0 -172 12 -193 23 -23 11 -75 -3 -75
-21 0 -6 -12 -3 -26 7 l-27 17 33 9 c40 10 29 26 -27 38 -21 4 -59 12 -84 18
-75 16 -240 12 -289 -6 -53 -21 -120 -11 -120 17 0 22 5 20 -128 26 -40 1 -79
7 -85 12 -11 9 -121 24 -159 23 -90 -4 -137 4 -162 28 -30 28 -24 45 13 36 21
-5 24 -4 13 7 -8 8 -39 13 -80 14 -82 1 -132 12 -132 28 0 16 -95 50 -116 42
-10 -4 -14 -12 -10 -22 4 -10 1 -14 -6 -11 -7 2 -12 9 -11 15 1 6 -17 20 -41
32 -34 16 -63 21 -130 21 -53 0 -86 4 -86 11 0 5 7 7 16 4 9 -3 12 -2 8 5 -4
7 6 10 30 8 46 -4 69 16 42 37 -23 17 -39 17 -86 4 -35 -10 -146 -19 -315 -25
-54 -2 -116 3 -154 11 -58 13 -66 13 -82 -2 -17 -15 -20 -15 -51 4 -18 11 -54
23 -81 25 l-47 6 0 -1435 0 -1434 5120 0 5120 0 0 1174 c0 930 -3 1175 -12
1179 -10 4 -9 8 2 16 13 9 12 11 -5 11 -18 1 -18 2 -4 13 18 13 22 77 5 77 -4
0 -3 7 4 15 11 13 10 18 -6 30 -17 13 -18 14 -1 15 19 0 21 8 7 30 -6 9 -13
11 -18 5 -19 -25 -71 -43 -105 -36 -36 9 -74 -9 -62 -28 4 -7 -4 -11 -19 -11
-14 0 -28 -5 -31 -11 -4 -6 -13 -8 -21 -5 -22 9 -43 -4 -37 -22 5 -12 2 -14
-11 -9 -10 4 -30 7 -44 7 -21 0 -24 2 -12 10 8 5 23 7 33 4 9 -3 17 -1 17 5 0
12 0 12 -53 15 -21 2 -40 -1 -43 -6 -3 -4 -16 -8 -30 -8 -13 0 -24 -4 -24 -8
0 -4 -11 -9 -26 -10 -14 -1 -34 -6 -44 -12 -20 -11 -70 -14 -70 -4 0 14 28 29
60 32 22 2 42 12 55 26 11 13 27 26 35 29 8 2 -2 5 -22 5 -26 0 -38 -4 -38
-14 0 -24 -19 -20 -130 30 -14 6 -31 17 -38 24 -7 6 -18 12 -23 12 -6 0 -18 7
-27 16 -28 28 -121 15 -181 -27 -52 -35 -62 -49 -36 -49 8 0 15 -4 15 -8 0
-11 60 -32 91 -32 26 0 87 -33 105 -58 11 -15 65 -14 107 3 11 5 17 3 17 -6 0
-7 -3 -10 -6 -6 -4 3 -29 -5 -56 -19 -27 -14 -55 -23 -61 -20 -7 2 -4 5 5 5
30 2 27 16 -3 17 -16 1 -29 -4 -29 -10 0 -6 -6 -4 -13 4 -7 8 -25 21 -40 28
-16 7 -25 17 -21 23 4 8 -4 9 -27 4 -19 -4 -36 -7 -39 -8 -3 0 -25 3 -50 7
-97 15 -139 14 -161 -5 l-20 -18 24 -16 c29 -19 43 -55 21 -55 -8 0 -14 6 -14
14 0 16 -41 29 -64 20 -9 -3 -16 -1 -16 5 0 19 -60 13 -67 -6 -7 -19 -22 -33
-37 -33 -5 0 -1 9 9 20 17 19 17 19 -16 8 -19 -6 -47 -10 -62 -10 -15 1 -25
-3 -22 -8 4 -6 -2 -10 -12 -10 -11 0 -28 -6 -38 -14 -11 -8 -25 -12 -31 -9 -7
2 -15 0 -19 -6 -3 -6 -15 -11 -25 -11 -14 0 -18 -5 -13 -16 4 -11 12 -14 27
-9 38 12 93 16 76 5 -8 -5 -26 -10 -40 -10 -14 0 -36 -7 -50 -15 -14 -8 -29
-14 -35 -14 -5 0 -2 4 8 10 18 10 18 12 1 30 -19 22 -44 25 -44 7 0 -9 -3 -9
-9 1 -7 10 -29 15 -74 15 -36 1 -63 4 -60 9 2 4 -5 7 -16 7 -12 0 -21 5 -21
11 0 6 7 9 15 5 8 -3 15 -2 15 3 0 15 -38 20 -44 6 -3 -8 -13 -11 -25 -8 -13
3 -21 1 -21 -7 0 -7 -8 -9 -19 -5 -24 7 -73 -4 -65 -16 3 -5 0 -9 -5 -9 -6 0
-11 4 -11 9 0 4 -15 3 -34 -3 -19 -6 -32 -14 -30 -18 3 -4 1 -8 -5 -8 -5 0
-12 6 -14 13 -4 9 -6 9 -6 0 -1 -8 -17 -11 -48 -9 -27 2 -33 1 -15 -1 29 -4
32 -7 26 -31 -6 -25 -5 -26 8 -8 10 13 17 15 22 8 4 -7 22 -12 41 -12 19 0 37
-4 40 -10 3 -5 25 -10 48 -10 31 -1 38 -3 26 -10 -9 -5 -30 -11 -47 -12 -17
-1 -28 -6 -25 -11 3 -4 8 -6 11 -3 3 4 16 -1 28 -9 81 -53 144 -75 144 -51 0
8 12 16 28 19 21 3 18 4 -12 6 -53 2 -42 9 22 16 50 4 52 4 52 -19 0 -19 -4
-23 -20 -19 -11 3 -20 0 -20 -6 0 -6 -10 -11 -22 -11 -19 0 -20 -2 -8 -10 23
-15 52 -12 94 10 22 10 43 17 49 13 5 -3 -7 -13 -27 -21 -48 -19 -42 -38 18
-56 14 -5 16 -9 6 -20 -10 -13 -14 -12 -30 4 -11 11 -32 22 -47 26 -16 3 -40
9 -55 14 -29 9 -68 3 -68 -11 0 -5 -9 -9 -21 -9 -11 0 -29 -5 -39 -10 -10 -6
-21 -6 -24 -1 -3 4 -29 9 -57 10 -28 0 -57 5 -63 10 -6 5 -34 8 -61 6 -27 -1
-55 -1 -62 2 -20 8 -5 23 25 24 l27 1 -30 14 -30 15 37 -5 c21 -3 40 0 43 5 7
10 -2 12 -62 9 -25 -1 -52 5 -67 16 -24 15 -26 15 -20 0 4 -12 0 -16 -15 -16
-25 0 -28 -17 -3 -23 10 -3 7 -5 -10 -6 -16 -1 -32 6 -38 17 -11 16 -11 16 -6
-1 3 -11 0 -17 -9 -17 -8 0 -15 -5 -15 -11 0 -10 -35 -8 -112 7 -22 4 -43 2
-50 -3 -7 -6 -40 -9 -73 -8 -33 2 -64 0 -70 -3 -5 -3 -16 -7 -25 -8 -148 -15
-160 -16 -160 -5 0 11 28 15 80 12 14 -1 39 3 55 10 17 7 38 11 48 10 9 -1 17
3 17 9 0 6 6 10 13 8 16 -3 57 24 57 38 0 7 -8 10 -20 7 -11 -3 -20 0 -20 6 0
6 -9 11 -19 11 -10 0 -22 7 -25 16 -7 18 -47 13 -94 -12 -20 -10 -28 -11 -34
-1 -6 9 -8 9 -8 0 0 -18 -30 -16 -51 3 -11 10 -19 12 -24 5 -3 -6 2 -11 12
-11 17 -1 17 -1 0 -11 -9 -6 -26 -7 -37 -4 -12 4 -20 2 -20 -5 0 -7 -6 -8 -17
-2 -12 6 -29 5 -47 -3 -29 -12 -76 -9 -76 6 0 5 -7 6 -15 3 -8 -4 -15 -2 -15
3 0 5 19 10 43 11 80 4 142 15 162 28 17 12 13 13 -37 9 -31 -3 -59 -1 -62 4
-3 4 -22 7 -43 5 -38 -3 -62 14 -40 28 8 5 5 7 -8 6 -43 -3 -76 2 -70 12 3 5
1 10 -4 10 -6 0 -11 -4 -11 -8 0 -13 -124 -1 -135 13 -6 7 -19 15 -30 18 -11
2 3 5 32 6 28 0 55 6 59 13 5 8 -12 10 -67 5 -41 -4 -85 -10 -99 -13 -20 -4
-22 -3 -10 5 8 6 26 11 40 11 88 2 -116 41 -217 42 -39 0 -61 -11 -43 -22 7
-5 0 -9 -19 -12 -17 -2 -31 -2 -31 1 0 3 -24 5 -52 3 l-53 -3 25 20 c28 24 64
34 167 51 52 8 92 23 149 56 42 24 85 44 93 44 21 0 117 63 142 93 40 48 68
93 75 122 5 25 4 28 -7 18 -7 -7 -19 -13 -27 -13 -12 0 -11 5 3 26 18 28 14
44 -8 26 -22 -19 -29 -1 -10 27 13 20 17 51 18 133 1 72 -2 108 -9 108 -6 0
-28 -20 -49 -44 -37 -43 -114 -103 -121 -95 -2 2 29 34 69 71 41 36 70 70 67
74 -4 4 -1 3 7 -1 11 -6 13 -4 8 7 -3 9 0 21 6 27 6 6 9 13 6 15 -2 3 -40 -26
-83 -65 -78 -68 -106 -83 -106 -54 0 21 91 116 104 108 6 -3 8 -2 3 2 -10 12
53 75 76 75 10 0 16 4 12 9 -3 5 -1 12 4 16 6 3 2 20 -10 40 l-20 34 37 -4
c20 -2 41 -8 47 -14 15 -15 27 -14 27 4 0 8 5 15 10 15 6 0 10 6 10 14 0 7 7
19 15 26 22 18 19 30 -7 30 -30 0 -52 15 -44 29 4 6 -1 14 -11 18 -10 3 -24
11 -31 16 -21 17 42 39 74 27 33 -13 34 -13 28 4 -6 17 49 76 71 76 16 0 79
32 83 43 2 4 10 7 17 7 8 0 16 9 20 19 3 11 14 23 24 26 10 3 27 21 37 41 10
20 30 42 45 49 14 7 34 32 45 54 10 22 22 41 27 41 12 0 8 35 -7 56 -14 18
-15 18 -26 -11 -33 -88 -207 -200 -267 -172 -34 15 -28 23 25 36 100 25 196
107 239 201 40 88 45 99 66 121 l20 21 16 -38 17 -39 12 34 c17 47 15 51 -13
51 -29 0 -31 7 -10 37 11 15 12 31 6 64 -6 28 -9 35 -10 19 -1 -18 -4 -21 -10
-11 -5 8 -8 46 -6 85 3 64 2 68 -11 46 l-13 -25 0 25 c-1 32 13 55 28 46 12
-8 13 -5 16 35 2 29 -12 32 -38 11 -12 -10 -16 -10 -19 -1 -3 9 -12 7 -31 -6
-43 -27 -32 0 19 51 37 37 44 51 40 70 -4 14 -11 22 -16 19 -6 -3 -10 2 -10
12 -1 17 -1 17 -14 1 -14 -20 -36 -24 -36 -8 0 6 -8 10 -18 10 -10 0 -35 18
-57 40 l-39 40 12 67 c6 38 14 82 17 100 5 23 -2 63 -25 138 -18 58 -30 109
-27 111 3 3 20 -38 37 -93 36 -113 60 -148 51 -76 -2 16 39 93 50 93 5 0 9 5
9 11 0 7 -10 5 -25 -5 -38 -25 -42 -19 -8 16 31 33 61 108 32 81 -7 -7 -20
-13 -28 -13 -8 0 -25 -10 -38 -22 -21 -20 -34 -13 -14 7 6 6 17 28 26 50 l17
40 -32 -33 c-50 -50 -60 -43 -37 24 8 22 17 53 21 69 7 29 7 29 -8 10 -14 -17
-17 -18 -26 -5 -5 8 -10 11 -10 7 0 -4 -12 4 -26 18 -27 27 -26 55 1 55 8 0
15 2 15 4 0 28 -25 172 -36 210 -8 27 -14 75 -15 105 0 31 -4 65 -9 76 -6 13
-7 2 -3 -32 3 -29 3 -53 0 -53 -9 0 -59 168 -53 178 9 15 -32 89 -65 116 l-34
28 35 -19 c29 -16 68 -73 92 -135 2 -4 15 -9 30 -12 31 -5 38 7 38 65 0 48
-15 44 -24 -6 -10 -54 -26 -32 -26 37 l0 60 -68 72 c-37 39 -80 87 -94 106
-14 20 -42 52 -62 72 l-36 36 33 13 c17 7 34 14 36 15 2 2 -7 17 -19 34 -17
24 -25 29 -31 18 -5 -7 -9 42 -9 117 0 113 -3 136 -21 170 l-21 40 6 -50 c4
-27 11 -72 17 -98 8 -34 8 -60 0 -92 -7 -29 -8 -52 -1 -69 8 -22 7 -26 -10
-26 -29 0 -57 44 -74 117 -8 37 -24 79 -35 94 l-21 28 22 12 c13 7 26 17 31
23 7 10 2 69 -9 109 -9 29 -24 8 -24 -32 0 -45 -21 -69 -40 -46 -19 23 -83
207 -83 239 0 21 -12 41 -43 73 -46 46 -78 59 -50 21 9 -13 35 -59 57 -103 29
-59 39 -88 35 -109 -9 -42 -97 -180 -107 -165 -4 7 -5 19 -1 27 3 9 1 13 -4
10 -5 -4 -10 10 -12 29 -1 24 8 57 29 100 26 53 29 68 21 92 -18 51 -64 115
-126 174 -44 42 -55 57 -40 57 10 0 34 -9 52 -20 49 -30 60 -24 24 13 -18 18
-32 38 -32 43 0 6 -25 11 -59 11 -41 0 -64 5 -75 16 -23 23 -20 30 14 25 22
-3 27 -2 19 8 -17 20 -172 94 -210 100 l-36 6 -7 -54 c-6 -50 -9 -54 -42 -64
-38 -12 -38 -12 -86 44 -39 46 -87 72 -135 72 l-42 0 49 -92 c47 -91 50 -93
102 -112 63 -22 259 -29 279 -9 24 23 0 31 -58 17 -79 -19 -82 -18 -48 12 83
70 130 65 232 -23 161 -141 175 -155 180 -205 4 -38 2 -49 -16 -67 l-22 -22
-68 64 c-57 54 -82 69 -152 94 -46 17 -142 43 -214 57 -71 15 -164 40 -206 56
-75 29 -76 29 -142 14 -69 -16 -127 -53 -127 -81 0 -49 95 -155 210 -233 30
-21 70 -54 89 -74 l34 -35 -34 4 c-168 22 -174 24 -197 52 -50 62 -83 91 -112
101 -40 14 -38 9 5 -17 42 -25 75 -75 75 -117 0 -34 -74 -194 -90 -194 -5 0
-10 4 -10 10 0 23 -56 60 -91 60 -31 0 -44 -9 -100 -67 -118 -124 -148 -162
-155 -190 -4 -15 -15 -39 -24 -53 -10 -14 -23 -44 -29 -66 -6 -22 -20 -49 -32
-60 -21 -18 -21 -18 -41 9 -12 17 -29 27 -45 27 -30 0 -27 14 25 108 26 48 51
77 96 110 34 25 102 89 153 141 60 62 109 104 145 121 29 14 54 34 56 43 4 22
-53 77 -81 77 -13 0 -47 -16 -77 -35 -67 -43 -113 -59 -151 -51 -27 5 -29 3
-39 -37 -17 -68 -40 -125 -55 -137 -31 -26 -41 -4 -54 109 -6 61 -16 123 -21
137 -13 34 5 71 50 102 34 24 38 24 205 18 94 -3 221 -12 284 -19 l114 -14
-30 26 c-109 93 -254 181 -298 181 -8 0 -18 6 -22 14 -4 8 -24 17 -43 21 -31
6 -38 3 -48 -17 -7 -13 -37 -35 -65 -48 -29 -14 -83 -56 -122 -93 -38 -37 -71
-64 -73 -59 -3 10 25 72 63 142 28 51 34 106 11 97 -10 -4 -16 4 -20 26 -10
54 -5 150 9 185 14 33 8 41 -13 20 -9 -9 -12 -4 -12 22 0 32 -1 33 -15 14 -21
-28 -18 -4 6 51 14 31 19 58 15 79 -3 17 -8 44 -11 60 -2 17 -11 34 -20 38
-20 12 -19 36 3 80 l19 36 -23 -10 c-13 -6 -25 -18 -27 -27 -3 -9 -5 -4 -6 10
-3 65 47 147 108 179 21 10 71 22 113 26 102 9 224 -27 301 -90 37 -30 65 -44
95 -48 73 -10 119 -65 121 -144 1 -36 -14 -54 -46 -54 -20 0 -23 -5 -23 -35 0
-26 10 -46 43 -83 23 -26 53 -63 67 -81 l25 -33 104 31 c57 17 105 31 107 31
2 0 4 5 4 11 0 8 -22 10 -70 7 -74 -6 -82 0 -54 37 12 17 29 21 100 24 78 3
84 4 65 18 -13 9 -59 16 -126 20 -126 7 -133 13 -142 107 l-6 66 48 0 c65 0
170 -40 265 -101 76 -48 100 -54 100 -24 0 7 7 15 15 19 17 6 20 -16 5 -44 -7
-13 -6 -21 5 -30 19 -15 17 -17 44 43 26 57 44 149 38 191 -4 32 10 104 26
124 6 8 5 12 -3 12 -7 0 -1 11 14 25 15 14 31 25 35 25 4 0 18 12 32 26 13 14
40 34 61 45 20 10 46 31 58 46 57 73 140 68 140 -8 0 -16 5 -29 11 -29 30 0
-25 -155 -77 -220 -66 -81 -107 -134 -141 -185 -44 -66 -103 -178 -103 -196 0
-7 26 -37 59 -68 32 -31 83 -87 114 -126 31 -38 84 -101 117 -140 33 -38 74
-98 90 -131 26 -53 60 -99 60 -80 0 15 102 -74 136 -119 21 -27 54 -67 73 -88
l34 -37 22 20 c12 11 29 20 39 20 15 0 17 -5 11 -27 -17 -70 -17 -101 1 -122
17 -20 19 -20 26 -4 5 15 7 14 7 -5 1 -13 5 -20 11 -17 13 8 40 -13 40 -31 0
-8 -10 -14 -23 -14 -20 0 -22 -4 -19 -39 3 -29 10 -41 28 -50 15 -6 24 -7 24
-1 0 6 5 10 11 10 5 0 8 -4 4 -9 -3 -5 -1 -12 3 -15 5 -3 19 14 32 37 13 23
38 63 56 90 19 26 34 50 34 54 0 16 138 233 172 269 22 23 51 60 66 82 15 22
50 74 79 115 29 41 66 103 83 138 16 35 35 66 40 69 6 4 52 47 103 97 50 49
115 105 142 123 28 19 53 38 56 43 4 5 12 8 19 5 7 -2 -31 -45 -86 -96 -53
-51 -92 -92 -84 -92 19 0 95 45 176 107 40 29 81 53 92 53 19 0 98 55 172 120
50 44 139 104 145 98 7 -7 -31 -45 -110 -108 -38 -30 -109 -92 -157 -137 -49
-46 -95 -83 -104 -83 -8 0 -25 -10 -37 -23 -116 -121 -280 -298 -298 -322 -13
-17 -26 -32 -29 -35 -9 -8 -70 -98 -70 -103 0 -2 -22 -42 -50 -88 -27 -46 -50
-87 -50 -92 0 -4 -36 -62 -81 -129 -98 -147 -105 -164 -80 -180 11 -6 17 -18
14 -25 -3 -7 0 -13 6 -13 6 0 11 9 11 20 0 44 73 4 82 -45 4 -24 55 -55 66
-39 11 17 48 34 76 34 16 0 32 9 42 24 17 28 44 25 44 -5 0 -11 -7 -19 -17
-19 -14 0 -15 -2 -4 -9 24 -15 91 13 119 51 7 10 18 18 24 18 5 0 22 8 36 18
15 10 43 24 62 31 77 28 173 71 180 80 10 13 50 31 69 31 11 0 23 5 26 10 3 6
21 10 39 10 36 0 59 31 49 68 -5 22 24 71 43 72 7 0 22 11 35 25 28 29 46 31
71 8 14 -13 23 -15 36 -7 9 6 58 32 108 58 50 25 128 68 172 95 72 43 103 67
173 134 11 9 21 17 24 17 3 0 18 8 33 19 171 119 298 190 457 256 110 46 188
82 235 109 14 8 39 21 55 28 17 8 56 29 87 46 31 18 66 32 77 32 10 0 26 3 35
6 15 6 16 142 16 1440 l0 1434 -115 0 c-89 0 -115 -3 -115 -13 0 -7 -24 -61
-54 -119 -53 -103 -147 -329 -181 -435 -20 -64 -39 -70 -32 -10 12 119 77 283
211 532 9 17 16 33 16 38 0 4 -598 7 -1328 7 l-1328 0 -18 -36 c-24 -52 -58
-252 -46 -275 6 -10 10 -33 10 -53 0 -19 4 -37 9 -40 13 -8 24 -74 22 -125 -3
-44 -34 -144 -54 -169 -5 -7 -18 -40 -27 -75 -10 -34 -30 -102 -44 -152 -15
-49 -29 -119 -32 -155 -6 -59 -3 -72 21 -120 15 -30 34 -63 43 -72 18 -21 52
-24 52 -5 0 13 85 160 109 189 6 7 30 42 53 77 24 35 53 70 66 79 22 14 22 14
22 -29 0 -24 -11 -87 -25 -139 -31 -120 -32 -144 -5 -137 17 4 20 1 18 -26 -2
-31 -25 -71 -60 -109 -10 -10 -18 -29 -18 -42 0 -13 -3 -26 -8 -28 -14 -6 -52
-114 -52 -148 0 -39 -40 -124 -74 -155 -11 -11 -33 -26 -48 -34 -15 -8 -47
-39 -72 -70 -62 -78 -85 -101 -101 -101 -25 0 -18 62 15 146 20 50 32 98 34
142 2 37 7 101 11 142 l8 75 -45 50 c-65 72 -81 109 -86 195 -4 73 -5 76 -41
102 -26 18 -44 25 -64 21 -16 -3 -37 1 -53 12 -25 16 -28 16 -55 -4 -16 -12
-33 -20 -38 -17 -18 12 51 156 117 243 31 41 40 105 19 136 -13 20 -14 37 -5
103 15 123 48 222 109 324 37 63 59 115 73 176 8 39 18 79 22 88 6 15 -270 16
-3526 16 l-3532 0 37 -42z m7925 -16 c0 -16 -32 -52 -46 -52 -18 0 -18 10 2
38 14 21 44 31 44 14z m38 -119 c-4 -22 -22 -20 -26 1 -2 10 3 16 13 16 10 0
15 -7 13 -17z m-6652 -254 c10 -17 -23 -46 -37 -32 -7 7 -9 19 -6 27 7 18 33
21 43 5z m8364 -254 c0 -28 -20 -75 -32 -75 -9 0 -11 61 -2 84 10 25 34 19 34
-9z m-7379 -217 c81 -94 259 -380 259 -416 0 -12 -6 -25 -14 -28 -8 -3 -16
-15 -20 -26 -4 -18 -7 -19 -21 -8 -9 8 -26 32 -37 54 -12 23 -37 66 -58 96
-76 114 -167 350 -134 350 3 0 15 -10 25 -22z m5422 -24 c11 -11 -5 -34 -24
-34 -18 0 -26 20 -12 33 8 9 28 9 36 1z m2237 -32 c0 -19 -51 -53 -179 -118
-108 -55 -101 -22 9 43 142 83 170 95 170 75z m-6810 -57 c0 -8 -7 -15 -15
-15 -8 0 -15 7 -15 15 0 8 7 15 15 15 8 0 15 -7 15 -15z m6440 -24 c0 -13 -61
-73 -68 -67 -6 7 46 76 59 76 5 0 9 -4 9 -9z m-4904 -42 c14 -15 16 -24 8 -37
-15 -23 -48 -27 -64 -8 -10 13 -9 20 4 41 20 30 27 31 52 4z m3704 -67 c0 -29
-87 -132 -112 -132 -14 0 -48 29 -48 41 0 5 16 15 35 23 36 15 39 19 49 69 8
35 45 52 64 29 6 -9 12 -22 12 -30z m1096 -84 c5 -17 -1 -28 -25 -50 -36 -32
-51 -35 -51 -11 0 18 46 83 60 83 5 0 12 -10 16 -22z m-258 -120 c-68 -61
-128 -109 -179 -144 -28 -19 -60 -46 -71 -60 -21 -26 -119 -96 -126 -90 -5 6
37 66 63 90 11 10 36 29 55 42 19 13 62 44 95 69 33 24 64 44 68 44 4 1 18 11
30 22 26 26 78 59 92 59 5 0 -7 -15 -27 -32z m-1580 -56 c3 -18 -2 -22 -22
-22 -28 0 -34 18 -14 38 17 17 32 10 36 -16z m-1802 -153 c40 -38 -1 -90 -53
-66 -39 17 -26 87 16 87 8 0 25 -9 37 -21z m-116 -73 c0 -15 -18 -31 -26 -23
-7 7 7 37 17 37 5 0 9 -6 9 -14z m4094 -32 c23 -9 20 -41 -5 -54 -15 -9 -24
-8 -35 1 -18 15 -18 24 2 43 18 18 17 18 38 10z m-101 -40 c-6 -16 -63 -50
-63 -37 0 4 12 19 27 35 27 28 47 29 36 2z m-893 -104 c0 -5 -5 -10 -11 -10
-5 0 -7 5 -4 10 3 6 8 10 11 10 2 0 4 -4 4 -10z m-2140 -81 c0 -5 -7 -9 -15
-9 -15 0 -20 12 -9 23 8 8 24 -1 24 -14z m1152 -86 c56 -8 128 -87 128 -141 0
-74 -42 -136 -107 -156 -12 -4 -27 -13 -33 -21 -18 -22 -30 -19 -101 21 -70
39 -119 97 -119 142 0 15 -4 33 -9 41 -6 10 1 24 25 49 19 19 34 39 34 44 0 4
11 8 24 8 13 0 39 7 57 15 19 8 41 12 49 9 8 -3 32 -8 52 -11z m-5510 -272 c8
-10 22 -21 29 -23 8 -3 10 -11 6 -23 -7 -17 -9 -17 -31 4 -24 22 -41 61 -27
61 3 0 14 -8 23 -19z m7775 -6 c3 -20 -48 -85 -67 -85 -19 0 -22 47 -5 80 13
25 21 31 43 28 18 -2 28 -10 29 -23z m-1047 -95 c-39 -55 -90 -75 -90 -35 0
21 59 65 86 65 l25 0 -21 -30z m328 -96 c4 -25 -22 -49 -43 -40 -15 5 -21 47
-8 60 14 14 48 1 51 -20z m-4573 -29 c39 -16 104 -83 111 -115 3 -14 12 -40
20 -58 18 -42 18 -56 -1 -48 -22 8 -19 -18 10 -104 25 -74 33 -140 16 -140 -5
0 -12 10 -16 23 -8 21 -8 21 -12 -5 -2 -16 -8 -28 -13 -28 -5 0 -5 -12 0 -27
4 -16 11 -52 15 -82 5 -47 4 -53 -9 -42 -13 11 -13 6 0 -41 16 -62 18 -102 4
-93 -24 15 -1 -154 34 -254 18 -48 22 -161 6 -161 -5 0 -10 6 -10 13 -1 8 -4
7 -9 -3 -5 -8 -11 -62 -14 -119 -4 -57 -11 -109 -16 -114 -16 -16 -39 10 -57
67 -9 28 -24 60 -33 71 -21 26 -86 57 -193 91 -72 23 -89 26 -102 15 -27 -22
-19 -45 42 -121 107 -135 175 -197 237 -216 65 -21 92 -45 135 -120 51 -91 36
-119 -48 -92 -56 18 -68 15 -88 -23 -18 -36 -7 -62 35 -84 47 -24 59 -41 88
-133 40 -125 41 -134 26 -165 -13 -26 -16 -27 -36 -14 -11 7 -44 58 -71 113
-28 55 -68 122 -88 149 -58 77 -66 114 -40 178 12 29 22 58 22 65 0 20 -51
115 -72 136 -20 19 -20 19 -13 -14 12 -53 -3 -118 -34 -151 -16 -16 -33 -29
-38 -29 -5 0 -23 -11 -39 -25 -20 -17 -41 -25 -68 -25 -21 0 -53 -9 -71 -20
-20 -12 -60 -23 -100 -27 -84 -8 -89 -16 -63 -115 12 -44 18 -87 14 -102 -7
-30 -53 -61 -111 -77 -22 -6 -74 -19 -115 -30 -49 -13 -87 -30 -109 -49 -58
-52 -160 -63 -218 -25 -26 17 -29 14 -55 -60 -10 -27 -17 -73 -18 -102 0 -29
-5 -64 -12 -78 -10 -23 -7 -30 55 -94 37 -38 67 -74 67 -80 0 -16 60 -113 84
-136 12 -12 59 -36 106 -55 132 -52 353 -163 412 -206 29 -21 79 -63 111 -92
65 -59 109 -82 160 -82 19 0 45 -8 58 -19 13 -10 38 -22 56 -25 17 -4 34 -13
36 -21 6 -14 -30 -95 -47 -107 -19 -13 -74 -9 -189 16 -61 13 -161 32 -222 40
-105 16 -152 32 -333 112 -30 13 -51 28 -48 33 3 5 -2 8 -12 7 -9 0 -16 4 -15
11 2 8 -4 10 -14 6 -12 -5 -15 -2 -11 9 7 17 -74 74 -135 95 -61 21 -137 62
-202 108 -76 54 -207 191 -235 245 -16 32 -24 39 -34 31 -14 -12 -43 14 -65
56 -13 25 -15 99 -3 107 9 5 41 -27 59 -58 5 -10 7 31 5 112 -3 96 0 142 13
191 27 105 54 168 91 213 70 83 94 151 115 329 8 72 8 102 0 118 -18 33 -26
26 -45 -40 -16 -60 -17 -61 -36 -44 -11 10 -20 24 -20 32 0 17 -29 17 -73 -2
-23 -10 -38 -11 -42 -5 -10 15 6 121 22 153 7 15 11 27 9 27 -12 0 -37 -64
-50 -123 l-13 -62 -18 40 c-20 47 -15 106 13 144 10 14 66 54 123 88 188 112
249 156 249 178 0 116 94 193 198 164 68 -19 182 -132 158 -156 -3 -3 -30 13
-61 36 -81 61 -81 61 -95 -6 -17 -84 -83 -211 -142 -274 -64 -69 -73 -95 -58
-159 12 -51 12 -51 -51 -198 -34 -81 -66 -151 -69 -157 -4 -5 -23 -39 -42 -75
-20 -36 -49 -91 -66 -122 -33 -61 -72 -176 -72 -212 0 -11 4 -27 9 -34 15 -24
81 20 151 99 40 45 96 92 146 125 99 64 116 85 144 176 19 61 31 81 77 128 68
68 98 112 113 168 14 55 -3 97 -40 97 -21 0 -26 -6 -30 -35 -6 -40 -36 -53
-57 -24 -14 19 -17 109 -6 165 13 68 197 209 272 209 49 0 103 -29 207 -112
50 -40 108 -86 128 -101 52 -40 72 -73 56 -92 -24 -29 -105 -12 -139 29 -7 8
-36 33 -66 56 l-54 42 -33 -32 c-18 -17 -52 -45 -75 -62 -52 -38 -65 -57 -88
-128 -32 -99 -118 -242 -180 -300 -39 -36 -82 -103 -90 -139 -9 -44 8 -61 62
-61 44 0 50 4 105 69 9 12 44 21 108 29 172 23 195 49 165 182 l-19 81 26 25
c21 22 38 27 105 33 66 5 87 12 128 39 28 18 69 38 93 45 93 25 111 93 51 193
-42 69 -103 124 -139 124 -14 0 -34 6 -43 13 -15 11 -15 16 2 63 9 29 30 63
47 77 24 21 27 29 18 44 -27 44 -78 20 -68 -32 6 -35 -9 -75 -28 -75 -6 0 -19
7 -29 16 -10 9 -44 18 -78 21 -34 3 -61 9 -61 14 0 5 14 24 31 43 42 48 171
98 255 99 52 1 74 -5 139 -37 l78 -38 53 54 54 53 -75 2 c-54 2 -95 10 -140
28 l-64 26 -65 -18 c-87 -23 -96 -13 -52 57 46 74 33 88 -125 134 l-80 23 -77
-37 c-95 -47 -124 -55 -287 -78 -163 -24 -213 -50 -273 -145 -42 -67 -68 -94
-79 -83 -4 4 -9 36 -11 71 -2 36 -7 65 -11 65 -3 0 -15 -16 -25 -35 -11 -19
-23 -35 -28 -35 -13 0 -9 47 6 85 48 113 253 270 329 251 35 -8 77 -45 77 -66
0 -28 -26 -31 -49 -4 -20 23 -61 34 -61 16 0 -20 61 -52 98 -52 54 0 244 39
259 53 6 7 15 29 18 49 6 33 5 36 -13 32 -10 -3 -25 0 -33 8 -9 9 -40 13 -92
12 -76 -1 -79 0 -92 27 -18 34 -62 69 -87 69 -10 0 -37 -17 -61 -38 -62 -57
-113 -93 -120 -86 -3 4 -13 4 -22 0 -12 -4 -14 -10 -6 -23 7 -13 4 -22 -11
-35 -25 -22 -76 -24 -84 -3 -5 12 -8 12 -20 0 -8 -7 -14 -17 -14 -21 0 -4 -25
-32 -56 -61 -72 -69 -119 -167 -109 -228 18 -111 21 -136 14 -147 -6 -9 -13
-8 -28 6 -45 41 -64 130 -41 191 17 45 -10 17 -32 -34 -16 -35 -21 -70 -23
-151 -1 -58 -7 -118 -14 -133 -6 -16 -11 -58 -11 -95 0 -37 -5 -74 -10 -82 -8
-13 -12 -12 -30 6 -32 32 -42 126 -24 242 8 52 12 97 10 99 -2 2 -10 -7 -19
-20 -22 -34 -40 -219 -27 -286 11 -58 5 -78 -33 -108 -37 -29 -39 -40 -6 -35
17 3 29 0 29 -7 0 -14 -100 -150 -125 -171 -37 -31 -75 -92 -69 -114 3 -12 -3
-39 -13 -61 l-17 -40 -6 40 c-5 35 -7 37 -13 18 -12 -35 -34 -27 -28 10 0 4
-3 7 -9 7 -5 0 -11 -21 -12 -47 0 -27 -2 -52 -3 -58 -2 -5 -4 -14 -5 -20 -1
-5 -1 -42 0 -81 2 -86 -9 -166 -22 -158 -11 7 2 -99 13 -107 5 -3 5 -39 -1
-80 -5 -41 -10 -78 -10 -84 0 -5 -10 1 -20 14 -18 20 -19 32 -14 90 7 61 6 65
-9 52 -20 -16 -23 -1 -7 30 17 31 28 109 20 137 l-7 27 -12 -29 c-19 -48 -33
-175 -26 -240 3 -34 15 -89 26 -123 11 -34 19 -76 17 -94 l-3 -31 -28 22 c-42
33 -69 93 -57 125 6 15 10 41 9 58 0 18 -3 26 -6 18 -4 -11 -7 -11 -13 0 -6 8
-12 -2 -21 -29 -10 -36 -10 -48 4 -79 9 -21 19 -64 23 -95 7 -66 -2 -73 -42
-32 -24 23 -26 30 -22 102 4 64 12 95 50 182 52 120 71 183 88 290 7 41 23
102 37 134 14 33 29 87 34 120 6 34 17 71 25 83 8 12 14 30 14 40 0 15 2 16
10 3 7 -12 12 -7 25 22 19 48 19 71 -1 38 l-15 -25 6 30 c4 17 19 57 34 90 16
33 32 71 36 85 4 14 22 54 40 90 18 36 36 80 40 98 4 18 17 45 29 60 12 15 28
47 36 72 10 31 36 68 82 117 37 40 68 74 68 77 0 3 -15 20 -32 38 -18 18 -53
57 -77 86 -40 49 -44 58 -45 111 -1 82 9 91 102 91 64 0 85 -5 141 -32 71 -34
112 -43 104 -21 -3 8 -14 11 -27 8 -17 -5 -18 -4 -6 4 8 6 23 8 34 5 13 -4 16
-3 11 6 -5 8 -3 11 6 8 8 -3 13 -11 11 -18 -3 -11 0 -11 13 0 9 7 14 19 11 26
-3 8 -1 13 3 11 5 -1 22 14 37 34 146 180 300 329 341 329 8 0 27 9 42 19 64
46 236 124 282 129 54 5 99 -3 99 -19 0 -6 -9 -8 -22 -4 -20 7 -21 5 -15 -56
3 -36 9 -73 13 -84 6 -16 5 -18 -7 -7 -16 15 -78 16 -116 1 l-28 -11 25 -14
c24 -14 23 -14 -22 -8 -80 11 -258 -49 -325 -109 -38 -34 -26 -40 20 -9 84 58
186 96 268 100 74 4 78 3 110 -26 26 -23 31 -34 23 -42 -9 -9 -17 -9 -32 -1
-29 15 -97 14 -111 -3 -9 -11 0 -14 49 -19 36 -3 77 -15 104 -30 l44 -25 71
82 c46 52 66 82 57 84 -8 2 -16 20 -19 40 -11 81 -28 131 -43 125 -11 -4 -12
0 -3 25 13 38 53 82 74 82 9 0 35 15 58 34 61 49 100 66 196 87 91 19 170 17
226 -6z m3636 -92 c-19 -35 -20 -36 -22 -13 -2 45 3 75 20 105 l16 30 3 -42
c2 -27 -4 -55 -17 -80z m359 63 c0 -3 -4 -8 -10 -11 -5 -3 -10 -1 -10 4 0 6 5
11 10 11 6 0 10 -2 10 -4z m93 -23 c-16 -16 -40 -37 -53 -48 l-25 -20 20 25
c24 31 67 70 78 70 5 0 -4 -12 -20 -27z m-83 -66 c0 -2 -12 -14 -27 -28 l-28
-24 24 28 c23 25 31 32 31 24z m-5984 -105 c78 -66 100 -106 69 -128 -10 -8
-24 -14 -29 -14 -17 0 -159 117 -173 142 -23 43 -17 58 25 58 33 0 50 -9 108
-58z m5904 34 c0 -3 -4 -8 -10 -11 -5 -3 -10 -1 -10 4 0 6 5 11 10 11 6 0 10
-2 10 -4z m-30 -30 c0 -3 -4 -8 -10 -11 -5 -3 -10 -1 -10 4 0 6 5 11 10 11 6
0 10 -2 10 -4z m-6065 -47 c22 -6 55 -22 73 -36 75 -57 122 -163 72 -163 -12
0 -25 -10 -32 -26 -11 -23 -17 -25 -47 -20 -19 3 -37 9 -40 14 -3 4 -22 16
-42 25 -46 21 -55 33 -77 98 -25 74 -23 101 8 110 36 10 41 10 85 -2z m6912
-24 c-4 -8 -11 -15 -17 -15 -14 0 -13 27 3 33 16 6 21 1 14 -18z m-1147 -25
c0 -5 -8 -10 -17 -10 -15 0 -16 2 -3 10 19 12 20 12 20 0z m1020 -135 c0 -8
-4 -15 -10 -15 -5 0 -10 7 -10 15 0 8 5 15 10 15 6 0 10 -7 10 -15z m-1860
-127 c38 -41 17 -108 -34 -108 -54 0 -81 59 -46 103 26 33 52 34 80 5z m-4060
-208 c0 -5 -20 -32 -45 -60 -24 -28 -52 -65 -61 -83 -23 -47 -78 -127 -86
-127 -14 0 -8 71 8 106 37 78 184 209 184 164z m3097 -246 c23 -15 66 -74 59
-82 -2 -2 -28 4 -57 12 -93 28 -127 19 -115 -28 7 -27 58 -52 95 -47 18 2 40
-13 90 -63 55 -54 72 -66 104 -68 20 -2 37 -6 37 -9 0 -3 12 -12 26 -19 14 -8
42 -37 62 -64 33 -44 37 -58 37 -109 0 -57 1 -58 50 -95 59 -45 92 -91 107
-149 7 -30 19 -48 38 -59 46 -28 54 -51 29 -82 -11 -15 -27 -42 -34 -59 -8
-18 -18 -33 -23 -33 -20 0 -78 47 -90 73 -10 21 -18 26 -33 22 -29 -9 -46 5
-99 85 -56 84 -52 97 24 86 61 -10 100 -37 126 -92 19 -40 25 -45 28 -27 4 24
-44 124 -81 169 -32 39 -79 133 -72 144 3 5 1 11 -5 15 -5 3 -10 0 -10 -7 0
-7 -11 -37 -25 -67 -25 -52 -26 -53 -60 -47 -47 9 -51 -4 -31 -112 16 -87 40
-162 75 -231 21 -41 64 -202 82 -307 15 -93 7 -283 -16 -347 -24 -67 -26 -55
-5 28 12 45 19 107 19 171 1 179 -33 277 -215 614 -73 136 -70 133 -115 127
-21 -3 -39 -1 -39 3 0 5 22 24 49 44 27 20 56 52 66 72 l17 36 -36 53 c-19 29
-51 66 -71 82 -20 15 -48 51 -64 78 -34 60 -103 125 -132 125 -19 0 -20 4 -15
34 10 51 -19 66 -66 33 -24 -16 -28 -16 -28 -2 0 29 85 103 131 114 56 13 156
5 186 -15z m-3220 -60 c10 -14 35 -47 55 -74 30 -38 34 -51 25 -62 -19 -24
-78 -61 -85 -54 -10 11 -41 118 -48 169 -6 43 -5 47 14 47 12 0 29 -12 39 -26z
m3459 -94 c-16 -46 -15 -34 1 60 6 39 8 41 11 15 1 -16 -4 -50 -12 -75z m-510
-157 c48 -49 85 -98 100 -133 14 -30 34 -74 45 -97 14 -30 18 -52 13 -78 -3
-19 -7 -35 -9 -35 -1 0 -27 25 -57 55 -44 44 -61 55 -88 55 -31 0 -32 -1 -26
-32 3 -18 25 -71 49 -118 34 -68 52 -92 95 -125 64 -48 69 -57 83 -132 15 -79
30 -105 88 -147 33 -25 64 -61 93 -109 29 -49 54 -77 76 -89 58 -28 72 -47 72
-95 0 -41 -1 -43 -31 -43 -38 0 -82 44 -100 98 -18 57 -61 132 -75 132 -26 0
-42 -31 -54 -102 -7 -40 -18 -86 -26 -103 -13 -29 -14 -28 -9 23 3 28 7 73 11
100 7 65 -6 78 -103 102 -45 11 -112 36 -150 55 -72 36 -131 47 -342 61 -163
10 -101 27 104 28 185 0 213 -5 297 -57 48 -30 157 -51 159 -31 0 5 2 20 4 34
4 37 -52 140 -96 178 -20 18 -55 56 -75 85 -21 28 -55 71 -75 95 -20 23 -46
63 -58 87 -27 57 -101 116 -209 167 -77 37 -84 39 -96 23 -10 -13 -29 -18 -78
-19 -44 -1 -72 -7 -89 -19 -13 -10 -39 -29 -58 -42 -36 -27 -61 -32 -61 -14 0
7 22 33 49 58 26 25 90 86 140 134 121 115 144 124 309 126 l103 1 75 -77z
m-723 -97 c3 -8 -3 -30 -14 -50 -28 -53 -25 -106 9 -138 15 -14 38 -29 52 -33
14 -4 44 -18 68 -32 24 -14 71 -29 105 -33 44 -7 67 -15 80 -31 22 -28 23 -92
0 -110 -11 -10 -14 -10 -9 -1 16 27 -122 112 -183 112 -9 0 -44 16 -77 36 -32
19 -71 38 -85 41 -25 5 -28 2 -38 -47 -15 -71 -24 -85 -97 -153 -75 -70 -121
-147 -143 -237 -11 -43 -21 -65 -31 -65 -49 0 -31 263 23 323 12 12 46 30 77
38 30 9 64 25 75 35 19 19 19 21 2 68 -9 27 -17 55 -17 63 0 21 106 180 138
205 31 26 57 29 65 9z m-2449 -275 c-19 -31 -51 -78 -71 -106 -19 -27 -39 -57
-44 -65 -8 -13 -12 -12 -28 8 -28 32 -48 27 -42 -11 3 -16 -50 -104 -93 -156
-24 -30 -54 -80 -66 -112 -11 -32 -32 -82 -45 -111 l-24 -53 5 55 c6 88 13
109 62 210 37 75 61 110 117 165 47 46 84 95 110 144 22 41 61 96 87 122 26
26 49 54 49 61 1 7 5 -11 10 -41 9 -51 8 -56 -27 -110z m3004 0 c-8 -23 -167
-187 -218 -224 -30 -23 -66 -53 -80 -67 -38 -40 -67 -52 -156 -65 -70 -11 -91
-19 -169 -69 -49 -31 -98 -56 -109 -56 -21 1 -21 1 0 18 122 100 141 109 250
122 49 6 100 18 114 27 75 49 193 160 235 224 27 38 57 77 69 85 23 16 70 19
64 5z m-2787 -24 c27 -18 35 -30 37 -60 3 -31 -2 -43 -29 -69 l-32 -32 -23 27
c-13 16 -27 46 -30 68 -7 41 -13 45 -45 29 -22 -12 -25 -36 -6 -43 13 -6 -18
-38 -126 -127 -72 -59 -80 -83 -31 -88 27 -3 35 2 53 31 28 45 82 72 112 56
12 -6 17 -14 12 -18 -31 -20 -149 -223 -267 -458 -15 -30 -26 -42 -38 -39 -10
2 -35 0 -57 -6 -35 -9 -39 -14 -43 -46 -7 -55 1 -71 39 -87 38 -16 37 -29 -4
-40 -57 -14 -69 -40 -22 -50 l31 -7 -22 -23 c-13 -13 -37 -25 -54 -27 -25 -2
-30 -7 -28 -23 10 -55 67 -63 96 -12 24 41 153 174 187 192 33 17 39 12 39
-35 0 -64 -77 -149 -251 -276 -92 -68 -109 -87 -128 -146 -7 -21 -31 -59 -55
-85 -69 -78 -116 -145 -116 -164 0 -23 32 -41 57 -33 28 10 53 46 53 77 0 31
48 87 73 87 24 0 40 -27 33 -55 -7 -26 -10 -29 -58 -39 -17 -4 -28 -13 -28
-23 0 -32 -24 -84 -37 -79 -16 7 -43 -32 -43 -61 0 -29 38 -140 58 -172 11
-16 17 -56 19 -133 2 -60 8 -118 13 -129 6 -10 8 -19 4 -19 -3 0 -1 -7 6 -15
10 -12 10 -15 -2 -15 -38 0 -122 105 -148 184 -8 24 -15 34 -20 26 -5 -8 -9
-7 -13 4 -4 9 -11 16 -17 16 -7 0 -5 -10 3 -27 8 -16 17 -40 21 -55 3 -15 16
-36 28 -48 18 -17 20 -23 10 -45 -10 -22 -9 -28 13 -47 14 -12 25 -28 25 -35
0 -8 7 -16 15 -19 8 -4 15 -12 15 -19 0 -18 64 -67 123 -96 26 -13 47 -27 47
-31 0 -12 -91 3 -126 21 -44 23 -104 79 -139 131 -33 51 -47 36 -21 -22 36
-77 73 -123 121 -151 28 -16 52 -33 53 -38 2 -5 10 -16 18 -23 8 -8 14 -18 14
-23 0 -15 82 -104 110 -118 15 -8 46 -16 69 -17 22 -2 41 -5 41 -8 0 -11 -44
-31 -87 -39 -52 -10 -56 -8 -143 81 -50 51 -86 78 -106 78 -3 0 -2 -6 4 -13 7
-8 7 -18 2 -27 -6 -8 -10 -19 -10 -25 0 -5 5 -3 10 5 9 13 11 13 20 0 21 -31
26 -36 54 -60 16 -14 26 -19 22 -12 -15 26 22 10 89 -38 38 -27 73 -50 78 -50
14 0 -15 31 -38 40 -16 7 -13 9 15 9 43 1 107 -40 116 -74 9 -38 -4 -48 -35
-26 l-27 19 -13 -29 c-11 -25 -10 -33 6 -62 11 -17 28 -33 39 -35 10 -2 30
-12 44 -22 l25 -20 -39 0 c-31 0 -44 7 -70 34 -17 18 -46 41 -63 50 -19 10
-39 30 -47 50 -8 19 -33 46 -57 62 -24 16 -57 50 -73 74 -17 25 -40 54 -53 65
-12 11 -32 47 -43 79 -25 75 -25 78 4 41 13 -16 27 -28 30 -25 3 3 -7 19 -22
35 -49 54 -91 169 -92 250 0 22 -7 49 -16 60 -40 53 -64 206 -70 445 -3 129
-2 142 11 115 18 -40 22 -25 29 103 5 85 11 114 34 160 l27 56 8 -99 c4 -55 3
-111 -1 -125 -13 -37 -5 -180 12 -220 14 -33 72 -98 79 -89 2 2 2 24 -1 47 -4
38 -8 46 -37 58 -42 17 -48 35 -36 116 10 72 24 103 84 191 30 44 44 57 58 54
18 -5 19 3 19 113 0 65 7 154 15 197 8 43 15 114 14 158 -1 89 23 226 45 259
7 12 23 31 34 44 12 13 23 45 27 75 9 65 27 100 65 127 16 12 30 25 30 30 0
21 63 100 94 118 18 11 57 55 87 98 39 56 66 84 98 101 58 30 117 30 162 0z
m3867 -232 c47 -53 78 -144 92 -266 11 -98 6 -114 -10 -32 -18 94 -40 152 -63
168 -30 21 -33 20 -58 -25 -25 -45 -39 -51 -39 -17 0 35 -12 68 -23 64 -5 -1
-19 -18 -30 -38 -17 -30 -19 -44 -12 -113 6 -69 11 -83 35 -108 21 -21 38 -28
67 -28 21 0 43 -4 49 -8 22 -14 94 -171 94 -204 -1 -31 -1 -32 -15 -13 -8 11
-19 25 -25 32 -5 7 -7 19 -4 27 3 8 -4 29 -16 46 -18 25 -28 30 -65 30 -38 0
-47 5 -77 39 -32 38 -56 107 -73 211 -7 49 -40 108 -87 157 -48 49 -46 73 6
73 27 0 41 -8 70 -40 l37 -41 25 30 c14 16 34 33 45 36 13 4 20 15 18 28 -4
51 8 49 59 -8z m-4448 -56 c0 -22 -8 -54 -17 -72 l-18 -32 -3 51 c-3 55 12
109 28 99 5 -3 10 -24 10 -46z m-884 10 c18 -20 18 -21 -1 -35 -10 -8 -29 -14
-41 -14 -36 0 -68 43 -47 63 15 15 71 6 89 -14z m2436 -6 c24 -16 66 -31 111
-40 49 -9 112 -33 197 -75 69 -34 127 -63 129 -64 2 -2 1 -10 -3 -19 -5 -15
-7 -15 -22 0 -19 19 -121 71 -178 92 -23 7 -75 21 -116 29 -78 16 -141 49
-160 84 -14 27 -4 25 42 -7z m384 -282 c-37 -41 -78 -51 -205 -51 -108 0 -123
-2 -141 -20 -12 -12 -20 -33 -20 -52 0 -48 -10 -78 -26 -78 -18 0 -18 31 1 56
11 14 13 34 8 77 l-6 59 59 -9 c107 -15 230 -6 287 20 58 27 68 26 43 -2z
m1131 -5 c27 -13 63 -37 81 -53 l32 -28 -13 -50 c-36 -133 -88 -171 -251 -187
-112 -10 -115 -11 -239 -63 -49 -20 -91 -35 -93 -32 -8 8 141 97 178 107 18 5
83 13 144 19 151 12 215 48 230 129 9 46 -7 75 -63 113 -60 41 -135 50 -213
24 -53 -18 -80 -13 -45 8 11 7 42 20 70 29 62 22 119 17 182 -16z m-2074 -27
c113 -24 202 -22 342 7 116 24 162 2 95 -46 -21 -15 -35 -38 -48 -83 -11 -33
-25 -63 -32 -65 -15 -5 -11 20 16 90 10 26 15 50 12 54 -4 3 -59 1 -122 -6
-119 -13 -168 -10 -271 17 -113 29 -128 35 -114 44 18 11 4 12 122 -12z m2468
-59 c39 -8 71 -8 115 1 61 12 114 7 114 -11 0 -26 -53 -43 -133 -44 -84 0
-127 13 -156 48 -16 19 -11 19 60 6z m-146 -104 c8 -49 44 -86 85 -86 25 0 31
-4 28 -17 -9 -48 -97 -3 -124 64 -8 18 -14 56 -13 85 1 46 2 49 9 23 4 -16 11
-47 15 -69z m-365 68 c0 -22 -61 -44 -120 -44 -64 0 -94 -16 -150 -77 -51 -56
-108 -103 -124 -103 -5 0 12 24 40 53 28 28 71 80 94 115 l44 63 80 -6 c48 -4
91 -2 106 4 14 5 26 10 28 10 1 1 2 -6 2 -15z m-1085 -75 c31 -9 61 -33 127
-102 48 -50 85 -93 83 -96 -15 -14 -77 34 -108 81 -26 41 -48 61 -95 86 -81
43 -83 52 -7 31z m-2775 -79 c0 -5 -4 -10 -10 -10 -5 0 -10 5 -10 10 0 6 5 10
10 10 6 0 10 -4 10 -10z m-63 -12 c-21 -7 -32 -7 -40 1 -8 8 0 11 29 10 39 -1
39 -1 11 -11z m-57 -8 c0 -5 -8 -10 -17 -10 -15 0 -16 2 -3 10 19 12 20 12 20
0z m2397 -41 c35 -17 99 -37 141 -44 l77 -14 -70 4 c-89 6 -167 29 -202 60
-37 33 -24 31 54 -6z m-2737 -9 c0 -5 -7 -10 -15 -10 -8 0 -15 5 -15 10 0 6 7
10 15 10 8 0 15 -4 15 -10z m5638 -4 c27 -14 94 -82 143 -146 l25 -34 47 13
c29 8 47 19 47 28 0 16 -56 73 -71 73 -17 0 -9 19 11 25 27 8 65 -16 85 -55
21 -40 41 -221 27 -246 -9 -16 -12 -12 -22 24 -6 23 -8 47 -5 52 3 6 1 10 -4
10 -6 0 -11 6 -11 14 0 22 -17 28 -40 16 -15 -8 -29 -7 -57 5 -40 17 -69 44
-123 115 -18 25 -46 58 -62 74 -43 43 -38 57 10 32z m336 -8 c9 -12 16 -29 16
-37 0 -10 -6 -6 -16 9 -10 14 -24 31 -32 38 -14 11 -14 12 1 12 9 0 23 -10 31
-22z m-683 -44 c36 -11 48 -19 41 -26 -19 -19 -242 22 -242 45 0 13 135 0 201
-19z m-2066 -75 c53 -54 83 -69 161 -76 35 -3 67 -10 71 -16 12 -20 -31 -39
-80 -34 -62 5 -149 65 -183 125 -32 53 -19 54 31 1z m-2099 -20 c-9 -13 -16
-31 -16 -41 0 -10 -4 -18 -10 -18 -5 0 -10 -9 -10 -19 0 -11 -4 -22 -9 -25 -5
-3 -17 -37 -27 -76 -10 -38 -19 -68 -21 -66 -9 8 26 158 40 174 8 9 17 32 21
51 8 42 25 66 39 52 6 -6 3 -18 -7 -32z m98 -1 c8 -38 17 -208 12 -208 -10 0
-44 75 -61 134 -11 38 -20 55 -27 48 -7 -7 2 -40 26 -98 30 -77 33 -91 21
-104 -8 -9 -25 -40 -39 -70 l-25 -55 0 68 c-1 38 -6 88 -12 112 -23 91 15 195
71 195 23 0 31 -5 34 -22z m3171 12 c3 -5 -1 -10 -9 -10 -9 0 -30 -9 -48 -20
-23 -14 -43 -18 -68 -14 -27 4 -69 -5 -160 -35 -116 -39 -194 -50 -234 -35
-31 12 -16 32 27 39 80 12 242 46 312 65 76 21 170 26 180 10z m-2545 -80
c-25 -22 -72 -56 -105 -76 -68 -40 -195 -160 -195 -184 0 -9 -4 -20 -9 -25
-19 -20 -15 -147 6 -201 70 -180 295 -354 455 -354 31 0 69 -5 85 -11 27 -11
25 -12 -42 -25 -103 -18 -144 -17 -222 10 -84 29 -210 124 -247 189 -115 196
-125 388 -26 485 20 20 45 51 55 68 11 19 41 43 79 63 33 18 86 47 116 66 30
19 63 35 74 35 16 0 11 -8 -24 -40z m3021 1 c-46 -64 -131 -111 -269 -148 -81
-21 -110 -24 -175 -20 -69 6 -86 3 -158 -23 -44 -17 -87 -30 -95 -30 -28 0
-13 30 26 50 79 40 131 52 225 51 78 -1 111 4 211 33 126 37 211 74 233 100
22 27 24 18 2 -13z m-3328 -53 c8 -23 -11 -68 -42 -99 -17 -16 -35 -47 -40
-67 -14 -52 -17 -162 -7 -257 12 -114 -5 -84 -20 36 -8 55 -23 120 -34 146
-11 25 -20 60 -20 77 0 47 40 107 94 144 53 35 62 38 69 20z m4134 -48 c32 -8
43 -17 51 -40 11 -29 10 -29 -11 -16 -12 8 -44 20 -72 27 -67 16 -85 26 -85
49 0 17 3 17 38 4 20 -7 56 -18 79 -24z m-517 10 c0 -12 -34 -30 -58 -30 -22
0 -46 23 -35 33 10 11 93 8 93 -3z m661 -17 c21 -3 40 0 43 6 11 17 26 13 26
-6 0 -19 -38 -63 -55 -63 -6 0 -31 19 -55 41 -37 34 -41 40 -20 34 14 -4 41
-9 61 -12z m-374 -50 c22 -21 52 -48 65 -60 23 -20 42 -66 31 -76 -9 -10 -143
134 -143 153 0 11 2 20 3 20 2 0 22 -17 44 -37z m-3422 -23 c-4 -6 -47 -31
-96 -56 -122 -61 -136 -97 -69 -174 16 -19 37 -57 46 -85 28 -87 148 -195 284
-256 62 -27 90 -34 160 -37 81 -3 87 -2 133 27 54 35 59 55 21 100 l-25 30 29
-10 c39 -14 66 -45 80 -95 22 -75 16 -99 -25 -124 -37 -22 -42 -23 -173 -13
-154 11 -170 17 -295 111 -118 88 -197 182 -225 267 -7 22 -23 61 -36 87 -47
93 -24 139 101 202 71 36 102 45 90 26z m421 -21 c3 -6 -5 -3 -20 6 -14 10
-26 19 -26 22 0 7 39 -17 46 -28z m3228 -75 c10 -31 16 -58 13 -60 -6 -6 -57
91 -57 110 0 34 27 3 44 -50z m-4657 34 c-3 -8 -6 -5 -6 6 -1 11 2 17 5 13 3
-3 4 -12 1 -19z m-10 -70 c-2 -13 -4 -5 -4 17 -1 22 1 32 4 23 2 -10 2 -28 0
-40z m3128 9 c28 -9 70 -23 95 -32 28 -10 90 -18 170 -21 69 -3 142 -10 162
-16 30 -9 46 -8 80 6 48 18 118 22 118 6 0 -5 7 -10 15 -10 20 0 19 -17 -2
-28 -87 -43 -590 -70 -699 -37 -65 19 -104 56 -104 99 0 52 46 83 90 61 14 -7
48 -20 75 -28z m-415 24 c0 -6 -4 -13 -10 -16 -5 -3 -10 1 -10 9 0 9 5 16 10
16 6 0 10 -4 10 -9z m2107 -33 c-3 -8 -6 -5 -6 6 -1 11 2 17 5 13 3 -3 4 -12
1 -19z m129 -12 c42 -15 165 -86 149 -86 -5 0 -56 14 -112 32 -95 30 -122 49
-90 61 6 3 13 6 13 6 1 1 19 -5 40 -13z m-4949 -48 c-3 -7 -5 -2 -5 12 0 14 2
19 5 13 2 -7 2 -19 0 -25z m4814 -108 c-7 -78 -17 -115 -40 -164 -39 -80 -52
-91 -191 -167 -195 -106 -184 -103 -319 -89 -221 21 -229 42 -15 41 133 -1
135 -1 192 30 65 36 105 61 112 69 3 3 41 24 85 45 44 22 82 43 83 47 2 5 8 6
12 3 15 -9 59 89 65 142 3 26 9 80 12 118 4 39 9 60 11 47 2 -12 -1 -67 -7
-122z m-4451 36 c0 -8 -17 -29 -38 -48 -21 -18 -41 -41 -45 -50 -10 -29 7 -60
44 -77 42 -20 49 -51 16 -67 -21 -9 -26 -7 -46 24 -26 39 -51 105 -51 133 0
26 70 96 98 98 13 1 22 -5 22 -13z m2323 -28 c6 -19 -3 -38 -18 -38 -12 0 -25
21 -25 41 0 14 38 11 43 -3z m2300 -8 c27 -21 51 -76 38 -85 -5 -2 -14 2 -21
10 -7 8 -9 15 -4 15 5 0 -11 14 -36 30 -25 16 -53 30 -63 30 -10 0 -15 5 -12
10 11 17 71 11 98 -10z m-659 -165 c-104 -104 -105 -104 -229 -150 -55 -20
-122 -45 -150 -56 -68 -26 -220 -23 -241 6 -32 44 -1 84 37 49 11 -10 20 -14
19 -9 -9 44 50 66 154 58 109 -8 316 23 316 48 0 5 4 9 9 9 6 0 32 21 58 46
39 37 100 84 110 84 1 0 -36 -38 -83 -85z m707 34 c-9 -22 -10 -22 -10 -3 -1
11 2 24 6 27 12 12 14 0 4 -24z m-520 1 c-13 -11 -33 -20 -45 -20 -17 0 -14 4
14 19 46 25 61 25 31 1z m636 -23 c-3 -23 -2 -49 3 -56 5 -8 4 -21 -2 -31 -10
-16 -12 -16 -29 1 -18 18 -15 61 10 107 18 34 24 26 18 -21z m-1257 8 c0 -14
-81 -55 -117 -60 -51 -6 -55 4 -10 28 50 27 127 46 127 32z m1161 -78 c-16
-16 -26 0 -10 19 9 11 15 12 17 4 2 -6 -1 -17 -7 -23z m-4665 -37 c-17 -36 -9
-43 32 -28 27 10 34 9 51 -7 29 -25 26 -54 -9 -95 -16 -19 -35 -48 -42 -65 -7
-16 -20 -38 -28 -48 -16 -16 -17 -16 -32 0 -26 30 -28 51 -14 119 13 62 11 86
-9 137 -5 12 -2 17 8 17 8 0 20 7 28 16 21 26 34 -9 15 -46z m4701 -5 c-4 -8
-11 -15 -17 -15 -6 0 -6 7 2 20 14 22 24 19 15 -5z m-1934 4 c48 -13 58 -36
28 -61 -31 -24 -97 -23 -138 2 -78 47 1 90 110 59z m-865 -29 c25 -11 42 -25
40 -32 -2 -7 -24 -23 -48 -36 -58 -30 -124 -25 -157 13 -27 31 -28 39 -7 59
22 23 118 21 172 -4z m2887 -34 c-63 -87 -139 -176 -155 -181 -11 -3 -28 -2
-37 4 -17 10 -16 11 5 17 25 7 27 15 11 31 -15 15 -2 34 18 26 10 -4 21 1 30
13 7 10 37 43 65 72 36 37 55 49 62 42 7 -7 7 -15 1 -24z m-255 -26 c-7 -17
-25 -41 -41 -54 -30 -26 -28 -36 8 -36 30 0 29 -12 -6 -50 -33 -37 -61 -35
-87 6 -16 23 -15 25 9 44 23 18 25 24 15 51 -12 34 -5 47 15 31 7 -6 18 -7 26
-2 8 4 20 6 27 3 8 -3 19 6 25 21 17 36 25 24 9 -14z m-5339 -106 c25 -22 19
-44 -22 -85 -43 -43 -96 -58 -229 -66 -91 -5 -130 8 -117 40 7 20 93 70 167
98 103 39 166 43 201 13z m4772 9 c-7 -2 -19 -2 -25 0 -7 3 -2 5 12 5 14 0 19
-2 13 -5z m-1147 -93 c4 -25 8 -69 7 -97 0 -29 4 -53 9 -53 5 0 6 -5 3 -10 -4
-6 -1 -18 7 -27 11 -14 11 -16 -2 -8 -12 8 -12 4 2 -16 12 -19 16 -43 14 -84
-2 -48 -7 -62 -28 -80 -13 -11 -22 -27 -20 -34 3 -8 0 -11 -6 -7 -6 3 -17 -1
-26 -10 -9 -8 -20 -13 -26 -9 -5 3 -7 0 -4 -8 3 -8 -3 -20 -12 -28 -10 -8 -15
-9 -11 -2 12 20 -10 24 -29 6 -9 -10 -22 -18 -28 -18 -6 0 -33 -15 -59 -33
-53 -37 -68 -38 -37 -2 11 13 20 28 20 35 0 7 9 20 20 30 11 10 17 21 15 26
-3 4 -1 10 5 14 5 3 17 23 27 43 9 20 28 48 40 62 13 14 23 28 23 32 0 18 2
24 16 39 8 9 11 18 8 22 -3 3 -2 12 2 19 4 7 9 19 10 28 1 8 5 33 9 55 4 22 8
61 9 87 1 25 8 54 16 62 16 21 17 20 26 -34z m-1121 18 c4 4 2 -3 -4 -15 -9
-18 -9 -22 2 -17 8 3 14 -1 15 -8 1 -7 3 -28 5 -46 2 -19 8 -37 13 -40 13 -10
14 -42 0 -42 -6 0 -3 -5 7 -11 9 -5 17 -19 17 -30 0 -11 8 -34 17 -52 9 -18
17 -35 18 -39 0 -4 6 -13 13 -19 6 -7 12 -17 12 -21 0 -4 20 -34 45 -67 25
-32 45 -64 45 -70 0 -6 4 -11 8 -11 5 0 14 -12 21 -27 11 -23 10 -25 -3 -13
-9 7 -16 9 -16 4 -1 -5 -7 2 -15 16 -14 25 -14 25 -15 2 0 -22 0 -22 -32 -5
-35 18 -39 20 -62 22 -8 0 -18 10 -21 22 -4 11 -9 18 -12 15 -3 -3 -17 3 -31
14 -13 11 -28 17 -33 14 -5 -3 -8 0 -7 8 2 7 -4 13 -13 13 -19 0 -51 30 -42
39 4 3 7 28 8 54 3 70 15 132 26 132 6 0 7 5 4 10 -3 6 -1 10 6 10 8 0 6 6 -4
18 -13 15 -14 21 -4 31 9 11 9 14 -1 18 -10 4 -10 8 -1 19 9 11 8 14 -2 14
-11 0 -11 2 1 10 12 8 13 11 1 19 -9 6 -10 11 -2 15 6 4 8 13 4 19 -5 8 -2 8
9 0 8 -7 18 -9 23 -5z m-1576 -114 c-13 -51 0 -121 29 -155 21 -25 84 -59 111
-59 11 0 47 7 80 16 34 8 72 14 84 12 18 -2 10 -11 -43 -45 -36 -24 -85 -56
-110 -73 -55 -38 -75 -38 -95 -1 -8 17 -29 50 -45 75 -57 83 -63 110 -50 200
6 44 17 90 22 100 11 20 11 20 19 -3 5 -13 4 -40 -2 -67z m160 68 c38 -32 155
-101 162 -96 9 5 159 -60 204 -89 32 -22 55 -46 55 -59 0 -16 -25 -8 -70 22
-54 36 -128 66 -138 56 -4 -4 1 -12 10 -17 9 -5 23 -15 30 -22 57 -53 112 -79
186 -89 42 -5 107 -7 144 -5 44 4 70 2 74 -5 5 -7 0 -9 -14 -6 -12 4 -20 1
-19 -4 5 -23 -67 -53 -125 -52 -56 1 -122 27 -268 109 -56 31 -270 236 -270
258 0 19 16 18 39 -1z m2928 -94 c-3 -8 -6 -5 -6 6 -1 11 2 17 5 13 3 -3 4
-12 1 -19z m-2497 3 c0 -5 10 -13 22 -17 24 -7 99 -53 108 -66 17 -23 98 -39
163 -33 47 4 73 3 83 -6 31 -25 14 -36 -77 -49 -85 -12 -93 -12 -132 7 -23 11
-62 37 -85 57 -24 20 -47 36 -50 36 -28 2 -70 80 -43 80 6 0 11 -4 11 -9z
m692 -88 c3 -57 4 -58 35 -61 23 -2 37 3 55 23 24 25 24 26 42 6 25 -27 17
-50 -24 -74 -44 -25 -76 -19 -125 24 -39 35 -47 78 -19 117 24 35 33 26 36
-35z m2933 7 c-4 -23 -9 -39 -11 -37 -3 2 -2 23 2 46 4 23 9 40 11 37 3 -3 2
-23 -2 -46z m-561 15 c-16 -25 -44 -34 -44 -15 0 7 44 38 58 40 1 0 -5 -11
-14 -25z m236 5 c0 -6 -20 -25 -46 -42 l-45 -33 63 -11 c35 -7 99 -24 143 -37
44 -14 89 -27 100 -29 20 -3 64 32 83 67 9 15 11 16 12 4 0 -30 -60 -110 -107
-139 -56 -36 -67 -34 -148 30 -71 56 -106 75 -166 90 -38 9 -56 8 -132 -15
-96 -28 -111 -30 -102 -15 14 22 129 71 203 86 42 9 91 24 107 35 35 22 35 22
35 9z m-563 -22 c49 -27 72 -56 73 -88 0 -51 -38 -63 -111 -34 -25 10 -44 26
-50 41 -10 28 -12 87 -2 96 13 13 52 7 90 -15z m-365 -18 c20 -18 20 -20 3
-26 -12 -5 -22 -1 -31 11 -28 38 -8 49 28 15z m-103 -143 c-2 -2 -20 -14 -39
-26 l-35 -23 30 26 c17 14 34 26 39 26 5 0 7 -1 5 -3z m-89 -61 c0 -2 -8 -10
-17 -17 -16 -13 -17 -12 -4 4 13 16 21 21 21 13z m-2610 -256 c3 -3 14 -25 25
-50 10 -25 31 -63 45 -85 14 -22 32 -53 39 -70 l13 -30 -21 19 c-25 23 -26 16
-4 -27 14 -29 14 -31 0 -19 -24 20 -73 102 -88 147 -7 22 -26 58 -41 79 -26
38 -36 84 -21 100 4 3 16 -8 27 -26 11 -18 23 -35 26 -38z m2981 1 c40 -12
105 -21 175 -24 60 -2 118 -8 127 -13 14 -8 11 -13 -20 -34 -34 -23 -45 -25
-162 -25 -105 0 -133 4 -166 20 -46 23 -70 69 -45 85 20 13 18 13 91 -9z m849
-19 c0 -15 -2 -15 -10 -2 -13 20 -13 33 0 25 6 -3 10 -14 10 -23z m-2790 -7
c7 -8 10 -22 6 -30 -8 -22 -67 -55 -96 -55 -15 0 -31 -5 -38 -12 -11 -11 -274
-15 -317 -4 -11 2 -23 5 -27 5 -11 1 -31 42 -24 48 3 4 66 8 138 10 73 2 156
10 183 17 144 39 158 41 175 21z m-881 -58 c33 -36 82 -57 133 -57 42 0 59
-20 38 -45 -9 -11 -26 -14 -59 -11 -73 8 -118 31 -140 74 -25 49 -34 131 -9
87 6 -11 22 -33 37 -48z m243 31 c19 -16 28 -51 17 -69 -6 -11 -12 -11 -32 0
-27 14 -51 57 -42 72 9 13 38 11 57 -3z m3235 -4 c4 -12 -64 -94 -77 -94 -17
0 23 96 43 103 16 7 30 3 34 -9z m-177 -12 c0 -19 -58 -60 -92 -65 -39 -6 -78
0 -78 13 0 7 133 57 158 59 6 1 12 -3 12 -7z m306 -57 c-3 -13 -20 -30 -40
-39 -36 -17 -86 -22 -86 -8 0 11 70 77 95 90 25 13 40 -8 31 -43z m-3376 -95
c-6 -12 -14 -19 -17 -17 -2 3 1 15 7 27 6 12 14 19 17 17 2 -3 -1 -15 -7 -27z
m1634 -127 c30 -122 97 -209 216 -281 49 -29 71 -50 88 -83 13 -24 30 -51 38
-60 21 -23 17 -30 -10 -19 -52 19 -103 19 -142 -1 -45 -22 -89 -24 -124 -4
-23 13 -20 14 38 8 44 -4 62 -2 62 6 0 19 -41 29 -98 23 -46 -4 -51 -7 -40
-20 11 -13 10 -14 -2 -10 -8 3 -27 1 -42 -3 -15 -4 -30 -4 -33 1 -3 4 -34 7
-70 5 -36 -1 -68 1 -71 6 -3 5 -9 7 -13 4 -5 -2 -46 -5 -92 -6 -46 -1 -94 -5
-106 -10 -24 -9 -32 4 -12 17 6 4 24 35 40 70 28 61 31 64 89 85 33 12 74 36
92 53 29 30 98 160 98 188 1 32 40 98 58 98 15 0 22 -14 36 -67z m-5000 -48
c4 -10 -1 -15 -14 -15 -13 0 -18 5 -14 15 4 8 10 15 14 15 4 0 10 -7 14 -15z
m516 -15 c0 -5 -5 -10 -11 -10 -5 0 -7 5 -4 10 3 6 8 10 11 10 2 0 4 -4 4 -10z
m-460 -10 c0 -5 -2 -10 -4 -10 -3 0 -8 5 -11 10 -3 6 -1 10 4 10 6 0 11 -4 11
-10z m835 -79 c10 -17 -11 -21 -31 -6 -18 14 -18 14 3 15 12 0 24 -4 28 -9z
m5494 -56 c0 -5 -4 -3 -9 5 -5 8 -9 22 -9 30 0 16 17 -16 18 -35z m-5327 -37
c-9 -9 -15 -9 -24 0 -9 9 -7 12 12 12 19 0 21 -3 12 -12z m-282 -8 c0 -5 -7
-10 -15 -10 -8 0 -15 5 -15 10 0 6 7 10 15 10 8 0 15 -4 15 -10z m155 0 c-3
-5 -10 -10 -16 -10 -5 0 -9 5 -9 10 0 6 7 10 16 10 8 0 12 -4 9 -10z m5486
-44 c12 -13 11 -63 -1 -71 -6 -4 -10 6 -10 23 0 16 -2 42 -4 58 -2 16 -1 22 1
14 3 -8 9 -19 14 -24z m-5704 14 c10 -11 24 -20 32 -20 8 0 11 -3 8 -6 -9 -9
-97 25 -97 37 0 17 40 9 57 -11z m151 -32 l47 -23 -47 -3 c-52 -3 -88 10 -88
33 0 21 34 18 88 -7z m147 -1 c11 -3 30 -6 43 -6 26 -1 29 -23 5 -42 -14 -12
-15 -12 -9 0 7 10 4 12 -12 7 -12 -4 -34 1 -56 14 -20 11 -43 20 -52 20 -8 0
-12 5 -8 11 6 10 39 8 89 -4z m555 -9 c0 -5 -15 -8 -34 -8 -19 0 -36 -5 -38
-11 -2 -6 -30 -12 -63 -14 -135 -6 -132 -6 -110 -15 l20 -9 -20 -1 c-11 -1
-46 -3 -78 -5 -58 -3 -84 8 -47 20 11 3 20 11 20 16 0 6 12 8 29 4 20 -4 30
-2 34 9 4 10 23 16 59 18 98 6 228 3 228 -4z m8345 -8 c-3 -5 -10 -10 -16 -10
-5 0 -9 5 -9 10 0 6 7 10 16 10 8 0 12 -4 9 -10z m105 6 c0 -3 -4 -8 -10 -11
-5 -3 -10 -1 -10 4 0 6 5 11 10 11 6 0 10 -2 10 -4z m-30 -16 c0 -5 -2 -10 -4
-10 -3 0 -8 5 -11 10 -3 6 -1 10 4 10 6 0 11 -4 11 -10z m-7977 -58 c26 -23
14 -25 -39 -4 -29 12 -42 21 -33 25 19 7 50 -2 72 -21z m99 -9 c-33 -16 -50
-13 -37 6 3 6 21 11 38 11 l32 0 -33 -17z m7914 0 c-2 -10 -11 -20 -20 -21
-15 -3 -16 -1 -6 17 13 26 29 28 26 4z m-8616 -3 c0 -5 -7 -10 -15 -10 -8 0
-15 5 -15 10 0 6 7 10 15 10 8 0 15 -4 15 -10z m8570 -20 c0 -5 -10 -10 -22
-9 -22 0 -22 1 -3 9 11 5 21 9 23 9 1 1 2 -3 2 -9z m-4747 -37 c-7 -2 -19 -2
-25 0 -7 3 -2 5 12 5 14 0 19 -2 13 -5z m3813 -3 c13 0 24 -4 24 -9 0 -10 -68
3 -78 15 -4 4 1 4 11 1 10 -4 30 -7 43 -7z m757 -4 c3 3 39 8 79 10 51 3 69 1
58 -6 -10 -6 -11 -10 -2 -10 6 0 12 -4 12 -10 0 -5 -7 -10 -15 -10 -8 0 -15 5
-15 10 0 6 -10 10 -22 10 -19 0 -20 -2 -8 -11 12 -8 10 -9 -7 -4 -17 5 -23 2
-23 -10 0 -13 -6 -16 -24 -11 -15 4 -26 1 -29 -7 -3 -7 -6 -5 -6 6 -1 11 -9
17 -27 17 -16 0 -23 -4 -18 -12 5 -8 0 -9 -14 -6 -12 4 -20 2 -16 -3 3 -5 -3
-9 -13 -9 -20 0 -43 -18 -43 -33 0 -4 8 -6 19 -2 10 3 23 -1 29 -8 9 -11 6
-14 -18 -14 -17 0 -30 4 -30 9 0 4 -10 8 -21 8 -12 0 -28 8 -35 18 -13 16 -13
16 -14 -1 0 -12 -4 -15 -12 -11 -7 4 -25 9 -41 11 -23 2 -28 0 -23 -12 3 -8 0
-15 -7 -15 -7 0 -22 -3 -35 -6 -18 -5 -21 -3 -16 10 9 23 -7 20 -46 -9 -22
-16 -28 -25 -18 -25 9 0 20 -5 24 -12 5 -8 -2 -9 -24 -5 -33 7 -55 -8 -25 -16
11 -3 5 -5 -12 -6 -16 -1 -41 -4 -55 -8 l-25 -6 21 20 c11 11 30 23 41 27 27
9 73 52 73 68 0 10 -2 10 -9 -1 -6 -8 -14 -10 -22 -5 -19 12 -61 5 -81 -13
-11 -10 -35 -15 -63 -15 -25 1 -43 -3 -41 -7 8 -13 -45 -7 -71 7 -25 14 -86 5
-76 -11 4 -6 0 -8 -10 -4 -10 3 -17 2 -17 -4 0 -6 -7 -3 -16 5 -18 18 -30 20
-39 6 -3 -6 4 -14 17 -19 47 -19 1 -10 -61 11 -48 17 -65 20 -69 10 -2 -6 -9
-9 -14 -6 -6 4 -32 6 -57 5 -31 -1 -42 2 -35 9 9 9 82 11 220 8 24 0 64 30 64
49 0 21 19 15 43 -12 20 -23 25 -24 59 -15 27 8 44 8 58 0 14 -8 26 -8 41 1
12 6 34 8 50 5 15 -3 31 -1 34 4 3 6 -2 10 -12 10 -10 0 -24 4 -30 8 -7 5 9 8
37 8 28 0 55 5 60 10 12 12 -161 11 -179 0 -5 -4 -12 -2 -15 3 -3 5 -29 7 -58
5 -52 -3 -53 -3 -25 12 15 8 36 13 45 10 26 -9 214 -9 245 -1 21 6 27 4 27
-10 0 -9 4 -14 9 -10 5 3 26 -6 47 -20 39 -27 54 -31 54 -15 0 5 -11 12 -25
16 -14 3 -25 11 -25 17 0 6 30 8 89 4 69 -4 93 -2 110 9 18 13 20 13 15 -1 -8
-19 12 -20 23 -1 9 17 53 25 69 14 6 -4 14 -5 17 -2z m207 10 c0 -3 -4 -8 -10
-11 -5 -3 -10 -1 -10 4 0 6 5 11 10 11 6 0 10 -2 10 -4z m-1000 -37 c0 -5 5
-7 12 -3 7 4 8 3 4 -4 -4 -6 -13 -9 -21 -5 -17 6 -20 23 -5 23 6 0 10 -5 10
-11z m1010 7 c0 -2 -7 -6 -15 -10 -8 -3 -15 -1 -15 4 0 6 7 10 15 10 8 0 15
-2 15 -4z m-1650 -46 c0 -5 -4 -10 -10 -10 -5 0 -10 5 -10 10 0 6 5 10 10 10
6 0 10 -4 10 -10z m1384 -15 c3 -9 0 -15 -9 -15 -8 0 -15 7 -15 15 0 8 4 15 9
15 5 0 11 -7 15 -15z m-1029 -35 c-3 -5 -10 -10 -16 -10 -5 0 -9 5 -9 10 0 6
7 10 16 10 8 0 12 -4 9 -10z m-1700 -10 c13 -6 15 -9 5 -9 -8 0 -22 4 -30 9
-18 12 -2 12 25 0z m1247 -6 c-24 -9 -47 -13 -50 -9 -11 11 22 25 58 24 l35 0
-43 -15z m155 10 c-3 -3 -12 -4 -19 -1 -8 3 -5 6 6 6 11 1 17 -2 13 -5z m708
-4 c3 -6 -4 -9 -19 -8 -13 1 -22 6 -20 10 7 11 32 10 39 -2z m-2020 -28 c-3
-3 -11 0 -18 7 -9 10 -8 11 6 5 10 -3 15 -9 12 -12z m1169 -3 c-31 -12 -39
-10 -19 5 11 8 24 12 29 8 5 -3 1 -9 -10 -13z m81 7 c11 -7 29 -16 40 -19 11
-4 7 -4 -10 -1 -16 3 -37 5 -46 5 -9 0 -16 7 -16 15 0 18 7 18 32 0z m155 -12
c-25 -7 -55 -16 -67 -19 -17 -5 -23 -3 -23 7 0 10 17 18 53 25 68 12 94 3 37
-13z m-300 -14 c-20 -13 -40 -13 -40 0 0 6 12 10 28 10 21 0 24 -2 12 -10z
m-1260 -80 c0 -5 -2 -10 -4 -10 -3 0 -8 5 -11 10 -3 6 -1 10 4 10 6 0 11 -4
11 -10z m620 -30 c0 -5 -5 -10 -11 -10 -5 0 -7 5 -4 10 3 6 8 10 11 10 2 0 4
-4 4 -10z m2375 -62 c-35 -14 -69 -20 -112 -19 -98 2 -113 2 -198 -3 l-80 -4
80 10 c44 5 116 9 160 9 45 -1 99 5 125 13 67 21 82 18 25 -6z m-1250 -48 c3
-6 -1 -7 -9 -4 -18 7 -21 14 -7 14 6 0 13 -4 16 -10z m-277 -38 c2 -7 -2 -10
-12 -6 -9 3 -16 11 -16 16 0 13 23 5 28 -10z m862 8 c0 -12 -27 -12 -55 0 -16
7 -13 9 18 9 20 1 37 -3 37 -9z m55 0 c4 -6 -5 -10 -19 -10 -14 0 -26 5 -26
10 0 6 9 10 19 10 11 0 23 -4 26 -10z m-820 -60 c3 -5 -1 -10 -10 -10 -9 0
-13 5 -10 10 3 6 8 10 10 10 2 0 7 -4 10 -10z m-1887 -28 c3 -16 -2 -22 -17
-22 -24 0 -35 15 -27 36 9 23 40 13 44 -14z m1754 -7 c14 -31 7 -39 -27 -31
-15 4 -25 13 -25 25 0 39 35 43 52 6z m1308 16 c0 -4 -37 -12 -82 -16 -137
-11 -174 -22 -311 -90 l-132 -65 65 0 c41 1 72 6 84 15 11 8 16 15 11 15 -5 0
-4 5 2 11 11 11 245 15 262 4 6 -3 8 -12 5 -20 -5 -12 -25 -14 -91 -13 -46 1
-88 -2 -91 -8 -4 -5 -27 -10 -51 -12 -25 -1 -51 -8 -59 -14 -7 -6 -23 -12 -35
-13 -12 -1 -84 -19 -161 -39 -157 -41 -160 -41 -152 -21 3 10 -1 16 -12 17 -9
0 -22 2 -29 2 -6 1 -15 5 -20 10 -4 5 8 6 29 2 30 -5 54 1 138 38 56 25 116
55 133 68 59 44 238 118 317 131 49 8 180 7 180 -2z m67 3 c-3 -3 -12 -4 -19
-1 -8 3 -5 6 6 6 11 1 17 -2 13 -5z m-2257 -38 c0 -9 -21 -15 -67 -19 -103
-10 -193 -8 -193 3 0 20 46 29 153 29 84 1 107 -2 107 -13z m-650 -53 c8 -2
74 -5 147 -6 90 -1 136 -6 145 -14 6 -7 28 -13 48 -13 34 -1 89 -34 77 -47 -7
-7 -110 12 -177 33 -25 7 -101 15 -170 17 -118 4 -187 17 -176 35 5 8 79 5
106 -5z m1205 -52 c39 -10 138 -14 240 -9 96 4 343 -21 380 -39 35 -17 35 -17
13 -29 -17 -9 -67 -11 -187 -7 -152 6 -165 5 -177 -12 -8 -10 -14 -24 -14 -31
0 -19 57 -34 107 -27 40 5 47 3 69 -20 44 -48 28 -74 -88 -143 -97 -57 -135
-75 -200 -94 -33 -10 -48 -20 -48 -31 0 -38 -79 -134 -152 -186 l-73 -51 3
-61 c3 -59 2 -61 -30 -81 -41 -25 -37 -25 -72 3 -22 18 -30 34 -32 62 -2 21
-11 54 -20 73 -10 21 -14 52 -12 85 3 51 3 51 -32 60 -88 22 -117 30 -150 43
-19 8 -53 13 -74 12 -46 -3 -60 17 -19 27 39 8 73 36 54 42 -17 7 51 34 99 39
19 3 42 0 50 -6 13 -9 13 -12 -2 -21 -10 -5 -18 -16 -18 -24 0 -15 95 -65 123
-65 31 0 136 31 187 56 40 19 65 24 104 22 l51 -3 0 31 c0 30 28 74 47 74 5 0
32 15 59 34 l51 34 -68 7 c-86 8 -165 26 -158 36 2 4 -8 19 -23 33 -21 19 -39
26 -70 26 -29 0 -45 5 -51 16 -9 16 -90 68 -124 80 -10 4 -18 10 -18 15 0 18
21 19 54 4 19 -9 43 -15 53 -14 20 3 75 -11 170 -44 53 -17 66 -19 89 -8 24
10 25 14 13 27 -8 7 -42 24 -74 36 -33 11 -76 27 -95 35 -34 13 -34 14 -5 9
17 -2 48 -9 70 -15z m1670 0 c7 -12 -12 -24 -25 -16 -11 7 -4 25 10 25 5 0 11
-4 15 -9z m-2357 -53 c-5 -15 -58 -24 -58 -9 0 11 17 19 43 20 11 1 17 -4 15
-11z m192 -27 c0 -17 -47 -40 -71 -35 -52 12 -54 14 -29 29 28 15 100 20 100
6z m-3077 -41 c19 -16 39 -30 45 -30 5 0 17 -11 26 -25 15 -23 15 -26 1 -31
-9 -4 -25 2 -36 12 -13 12 -38 18 -77 20 -72 2 -69 1 -75 18 -9 22 31 66 58
66 14 0 40 -13 58 -30z m-855 -11 c23 -17 42 -33 42 -35 0 -2 -15 -18 -32 -34
-38 -35 -66 -35 -156 -3 l-53 19 57 42 c31 23 66 42 78 42 12 0 41 -14 64 -31z
m3357 -43 c52 -31 104 -84 112 -114 3 -12 14 -27 24 -33 32 -17 23 -47 -17
-58 -44 -12 -60 -6 -68 25 -7 26 -82 114 -97 114 -5 0 -33 11 -64 25 -31 14
-59 23 -64 21 -5 -3 -15 1 -22 10 -19 23 -2 29 82 32 61 2 79 -2 114 -22z
m1845 -17 c0 -39 -32 -56 -65 -35 -29 19 -25 35 13 57 35 20 52 14 52 -22z
m-6320 -39 c0 -5 -4 -10 -10 -10 -5 0 -10 5 -10 10 0 6 5 10 10 10 6 0 10 -4
10 -10z m5540 -5 c0 -8 4 -15 10 -15 5 0 7 7 4 15 -6 15 7 21 19 8 9 -9 -23
-44 -34 -37 -5 3 -9 0 -9 -6 0 -7 -17 -9 -49 -5 -27 3 -68 1 -90 -4 -27 -6
-43 -5 -47 1 -12 19 26 42 79 49 94 11 117 10 117 -6z m-3040 -30 c10 -12 10
-21 2 -40 -19 -40 -82 -29 -82 15 0 37 55 55 80 25z m-54 -83 c6 -4 14 -19 18
-34 5 -23 3 -28 -11 -28 -58 1 -81 29 -45 56 20 16 23 16 38 6z m2454 -32 c0
-15 -7 -20 -29 -20 -32 0 -61 24 -39 33 7 3 25 6 41 6 21 1 27 -4 27 -19z
m-1835 -240 c14 -44 -48 -110 -89 -94 -26 10 -21 79 6 98 32 23 75 21 83 -4z
m1265 -507 c35 -45 24 -73 -40 -99 -30 -12 -56 -27 -58 -33 -7 -20 -24 -12
-19 9 3 11 1 23 -5 26 -14 9 -1 80 19 104 26 30 76 26 103 -7z m-102 -178 c32
-70 -11 -189 -86 -240 -60 -41 -145 -30 -189 25 -19 23 -15 75 8 124 38 82 93
116 190 116 61 0 67 -2 77 -25z"/>
<path d="M4705 7644 c-11 -3 -42 -13 -70 -23 -88 -32 -152 -51 -168 -51 -8 0
-22 10 -31 23 -14 19 -15 20 -9 2 13 -41 32 -54 64 -43 17 6 55 8 84 6 47 -4
56 -2 61 14 9 29 58 48 126 48 39 0 58 4 53 9 -12 12 -83 21 -110 15z"/>
<path d="M4696 7523 c-16 -9 -54 -19 -85 -22 -59 -7 -101 -25 -101 -42 0 -5
11 -6 28 -2 15 5 96 7 180 6 l154 -1 -24 25 c-49 52 -98 64 -152 36z"/>
<path d="M4033 7441 c-40 -3 -78 -12 -84 -18 -10 -10 -6 -11 19 -4 17 5 60 9
95 9 34 -1 72 4 82 10 23 13 15 13 -112 3z"/>
<path d="M4685 7395 c-159 -48 -184 -59 -182 -78 1 -10 -7 -24 -17 -31 -47
-27 -105 -71 -150 -114 l-49 -46 27 -23 c14 -12 45 -27 69 -34 23 -6 70 -22
105 -35 81 -31 116 -30 216 5 46 16 104 32 129 36 26 4 47 11 47 16 0 4 -25
35 -56 69 -64 69 -77 70 -132 14 -30 -31 -38 -34 -95 -34 -34 0 -68 4 -76 9
-22 14 4 48 71 91 72 47 144 75 216 85 41 5 52 10 48 22 -3 8 -6 18 -6 22 0
22 -118 41 -165 26z"/>
<path d="M3707 7261 c-17 -29 -14 -61 5 -61 6 0 8 7 4 15 -3 8 -1 27 5 41 13
37 6 39 -14 5z"/>
<path d="M3640 7240 c-1 -3 -4 -18 -6 -35 -14 -98 -8 -123 16 -65 9 21 9 40 2
67 -5 21 -11 36 -12 33z"/>
<path d="M4194 7202 c-6 -4 -16 -17 -22 -29 -7 -12 -22 -24 -34 -26 l-23 -4
23 -2 c13 0 22 -7 22 -17 0 -10 13 0 34 27 38 47 38 77 0 51z"/>
<path d="M4684 6941 c-39 -24 -57 -69 -41 -101 18 -35 80 -52 199 -55 59 -2
112 -6 117 -10 27 -16 6 18 -41 71 -97 106 -169 135 -234 95z"/>
<path d="M3701 6533 l-41 -58 -1 40 -1 40 -10 -35 c-12 -45 -19 -51 -100 -84
-36 -15 -69 -35 -72 -44 -3 -9 -22 -36 -41 -60 -54 -67 -41 -74 19 -9 48 50
59 57 93 57 l38 -1 -27 -16 c-23 -14 -48 -51 -48 -70 0 -3 18 15 41 41 22 25
45 46 51 46 21 0 100 63 124 99 27 42 44 111 26 111 -6 0 -29 -26 -51 -57z"/>
<path d="M4000 6337 l-75 -82 30 -6 c79 -17 105 -11 152 36 39 38 44 49 38 72
-8 35 -33 63 -54 62 -9 -1 -50 -38 -91 -82z"/>
<path d="M2996 6331 c-22 -44 -37 -84 -33 -88 11 -10 34 25 57 86 34 88 18 90
-24 2z"/>
<path d="M2923 6069 c-30 -19 -59 -76 -51 -100 3 -10 65 64 92 109 11 18 -4
15 -41 -9z"/>
<path d="M3572 5513 c-30 -44 -72 -130 -72 -151 0 -10 -6 -27 -14 -38 -14 -18
-16 -18 -44 -2 -31 19 -52 10 -52 -23 0 -23 29 -90 48 -112 9 -10 12 -18 7
-17 -6 2 -13 2 -18 1 -11 -2 37 -92 68 -129 38 -45 175 -141 280 -197 50 -26
115 -63 146 -81 152 -91 312 -143 467 -152 85 -4 92 -3 92 14 0 28 -108 124
-170 152 -30 13 -75 39 -100 57 -60 43 -124 75 -185 91 -67 18 -70 18 -51 -10
10 -17 12 -27 5 -31 -6 -4 -11 -5 -13 -4 -1 2 -14 21 -29 41 -15 20 -27 42
-27 48 0 6 -10 21 -23 33 -12 12 -35 39 -50 60 l-28 37 -102 0 c-63 1 -114 6
-132 14 l-30 14 42 -5 c55 -7 203 16 203 31 0 16 -25 51 -91 127 -70 80 -79
100 -79 190 0 78 -14 90 -48 42z"/>
<path d="M6654 6564 c3 -11 7 -31 10 -47 6 -38 51 -109 107 -171 26 -28 61
-73 78 -100 24 -39 31 -45 31 -27 0 27 -14 55 -52 101 -15 19 -28 38 -28 41 0
4 14 10 31 14 l31 7 -22 23 c-12 13 -36 26 -54 29 -37 7 -75 44 -100 98 -18
40 -42 64 -32 32z"/>
<path d="M6179 6393 c-24 -6 -30 -42 -13 -75 8 -16 43 -49 77 -74 54 -40 66
-45 97 -39 19 3 54 9 78 12 60 8 52 24 -38 90 -100 71 -159 97 -201 86z"/>
<path d="M3070 5684 c0 -59 -18 -144 -30 -144 -4 0 -12 17 -18 39 -24 78 -51
73 -73 -11 -11 -41 -11 -49 4 -66 25 -28 21 -40 -20 -61 -45 -22 -66 -45 -81
-86 -19 -53 -22 -83 -12 -109 12 -32 30 -34 30 -2 0 68 43 131 100 146 67 18
109 81 146 217 16 60 16 66 1 98 -26 55 -47 46 -47 -21z"/>
<path d="M2831 5181 c-8 -5 -11 -16 -6 -30 8 -27 21 -27 29 2 10 39 5 46 -23
28z"/>
<path d="M2548 4604 c-5 -4 -8 -35 -8 -68 1 -46 3 -57 11 -43 11 19 8 123 -3
111z"/>
<path d="M2547 4427 c-4 -10 -7 -40 -6 -65 l1 -47 9 45 c5 25 8 54 7 65 -3 19
-4 19 -11 2z"/>
<path d="M2491 4310 c0 -30 4 -62 9 -70 12 -19 12 62 0 100 -6 19 -8 12 -9
-30z"/>
<path d="M2541 4213 c0 -28 2 -54 7 -57 4 -2 6 14 4 37 -5 68 -10 76 -11 20z"/>
<path d="M2505 4125 c2 -22 11 -45 20 -51 17 -12 21 -29 5 -19 -6 3 -5 -6 2
-20 7 -15 14 -22 16 -16 2 6 8 9 13 5 12 -7 11 0 -3 31 -6 14 -15 25 -20 25
-4 0 -8 6 -8 13 -1 6 -7 26 -16 42 l-14 30 5 -40z"/>
<path d="M2591 4138 c0 -7 4 -22 9 -33 8 -18 9 -17 9 7 1 15 -3 30 -9 33 -5 3
-10 0 -9 -7z"/>
<path d="M2660 4103 c0 -10 11 -31 25 -48 21 -25 26 -28 35 -15 14 22 12 46
-6 64 -21 22 -54 21 -54 -1z"/>
<path d="M2562 4001 c-10 -6 -9 -16 5 -47 l18 -39 3 32 c4 39 -8 65 -26 54z"/>
<path d="M5373 7634 c-44 -10 -23 -24 35 -24 32 0 92 -9 133 -20 41 -11 84
-20 96 -20 12 0 23 -4 25 -8 2 -5 23 -12 48 -15 40 -5 42 -5 19 6 -14 7 -32
17 -40 23 -47 36 -248 73 -316 58z"/>
<path d="M5388 7494 c-43 -23 -34 -36 20 -28 44 6 225 -8 296 -22 21 -5 27 -3
24 7 -2 7 -32 19 -66 26 -34 7 -71 17 -81 23 -30 15 -161 12 -193 -6z"/>
<path d="M5410 7363 c-7 -21 -22 -49 -34 -62 -20 -23 -20 -24 -1 -17 36 13
117 26 163 26 102 0 188 -55 213 -138 18 -63 3 -70 -59 -29 -28 19 -76 43
-107 52 -30 10 -58 22 -61 26 -8 13 -73 11 -88 -3 -7 -7 -11 -20 -8 -30 3 -11
-10 -31 -38 -55 -36 -33 -70 -80 -70 -97 0 -3 17 5 38 17 60 36 157 31 251
-12 l75 -33 50 22 c28 12 86 32 129 45 43 13 80 25 83 28 16 15 -64 94 -176
172 -30 21 -75 53 -100 71 -55 39 -106 54 -187 54 l-61 0 -12 -37z"/>
<path d="M6564 7210 c10 -32 38 -72 55 -78 16 -5 -25 72 -48 91 -12 10 -13 8
-7 -13z"/>
<path d="M8200 7132 c-90 -50 -206 -151 -235 -203 -15 -28 -25 -52 -23 -55 3
-2 27 19 54 48 27 29 93 88 147 131 93 76 113 95 106 101 -2 2 -24 -8 -49 -22z"/>
<path d="M10200 6832 c-38 -25 -131 -114 -125 -120 2 -3 -7 -14 -21 -24 -41
-33 -20 -32 48 2 34 18 79 40 98 49 32 15 35 21 38 64 3 51 0 54 -38 29z"/>
<path d="M5479 6748 c-50 -11 -85 -52 -74 -88 12 -38 42 -34 98 12 28 25 68
54 87 66 l35 22 -50 -1 c-27 -1 -71 -6 -96 -11z"/>
<path d="M7000 6721 c0 -6 4 -13 10 -16 6 -3 7 1 4 9 -7 18 -14 21 -14 7z"/>
<path d="M7806 6695 c-15 -19 -34 -54 -42 -77 -8 -24 -30 -59 -48 -78 -29 -30
-156 -230 -156 -245 0 -30 75 73 218 300 34 55 66 125 59 131 -2 3 -16 -11
-31 -31z"/>
<path d="M10121 6629 c-62 -38 -118 -69 -124 -69 -6 0 -47 -24 -91 -54 -137
-90 -264 -165 -309 -182 -23 -9 -52 -21 -65 -27 -29 -14 -54 5 -33 26 6 6 17
12 24 12 7 0 12 7 12 15 0 8 22 29 50 47 28 19 42 33 32 33 -9 0 -17 -5 -17
-11 0 -8 -15 -10 -45 -7 -24 3 -42 2 -39 -3 8 -13 -10 -11 -24 3 -9 9 -21 8
-52 -1 -22 -6 -46 -9 -52 -5 -7 4 -8 3 -4 -4 5 -8 -1 -11 -17 -10 -19 2 -116
-49 -137 -72 -8 -9 -53 -29 -96 -44 -23 -8 -60 -26 -83 -40 -22 -14 -45 -26
-50 -26 -5 0 -14 -7 -21 -15 -7 -8 -17 -12 -23 -8 -7 4 -8 0 -4 -11 6 -15 3
-17 -26 -11 -20 4 -27 3 -19 -3 22 -15 -27 -40 -70 -34 -24 3 -38 0 -38 -7 0
-6 9 -11 20 -11 11 0 20 -5 20 -11 0 -6 -9 -8 -20 -4 -34 11 -24 -25 10 -37
24 -8 30 -16 30 -37 -1 -14 2 -39 6 -54 9 -39 -17 -66 -64 -65 -21 0 -53 -9
-72 -20 -19 -11 -53 -23 -75 -27 -83 -14 -134 -36 -137 -58 -2 -14 -10 -22
-23 -23 -11 0 -29 -5 -40 -11 -11 -6 -45 -16 -76 -23 l-56 -12 19 -36 c10 -20
18 -42 18 -48 0 -11 -58 -44 -77 -44 -16 0 -73 -31 -73 -39 0 -4 3 -11 8 -15
4 -4 7 -22 7 -39 0 -18 3 -32 6 -32 3 0 13 -6 23 -14 15 -13 15 -15 0 -32 -10
-11 -23 -19 -31 -19 -17 0 -17 -20 0 -21 6 -1 15 -1 18 -1 13 2 19 -49 9 -68
-5 -10 -10 -41 -10 -69 0 -41 -3 -51 -17 -51 -15 0 -14 -2 3 -15 11 -8 42 -14
75 -15 70 0 119 -9 119 -22 0 -6 -9 -12 -20 -15 -11 -3 -18 -9 -15 -13 5 -7
-44 -35 -57 -32 -15 4 -7 -9 20 -33 15 -13 21 -25 15 -25 -16 0 -17 -20 -2
-20 14 0 39 -26 39 -41 0 -7 -11 -2 -25 11 -34 32 -32 18 2 -16 16 -16 29 -22
31 -16 2 7 8 12 14 12 6 0 5 -6 -2 -15 -27 -33 83 -118 288 -222 86 -44 138
-78 173 -113 46 -46 49 -68 5 -35 -11 8 -31 15 -46 15 -27 0 -85 35 -135 80
-16 16 -71 49 -122 74 -51 25 -107 58 -125 73 -92 77 -117 93 -152 93 -35 0
-35 -1 -30 -32 3 -18 10 -46 15 -62 5 -16 9 -61 9 -101 0 -59 4 -75 20 -90 13
-11 18 -25 14 -37 -3 -10 -1 -19 5 -19 6 -1 17 -2 24 -3 24 -2 12 -31 -15 -34
-26 -3 -41 -22 -18 -22 15 0 12 -18 -7 -38 -24 -24 -28 -62 -7 -62 10 0 13 -6
10 -18 -4 -11 1 -25 13 -36 14 -13 17 -26 14 -59 -3 -30 4 -69 26 -135 17 -51
31 -99 31 -107 0 -7 9 -20 20 -28 10 -7 24 -25 29 -40 6 -15 15 -27 20 -27 12
0 41 -58 41 -82 0 -11 9 -22 20 -25 11 -3 20 -11 20 -18 0 -6 9 -20 20 -30 11
-10 20 -28 20 -40 0 -12 9 -34 21 -49 11 -14 19 -26 16 -26 -2 0 34 -38 80
-85 60 -61 91 -85 108 -85 14 0 25 -4 25 -10 0 -17 84 -58 135 -65 28 -3 59
-12 70 -19 30 -19 105 -34 260 -51 77 -9 178 -22 225 -30 47 -8 112 -17 145
-20 33 -3 78 -8 100 -10 189 -21 244 -27 339 -39 76 -9 109 -9 112 -2 2 6 3
779 2 1718 l-3 1707 -114 -70z m-903 -490 c1 -9 -6 -26 -16 -39 -16 -20 -23
-21 -48 -13 -30 10 -34 33 -11 61 14 18 71 11 75 -9z m-318 -109 c0 -5 -4 -12
-10 -15 -5 -3 -10 -4 -10 -1 0 2 -3 12 -6 20 -5 12 -2 15 10 10 9 -3 16 -10
16 -14z m-640 -505 c11 -13 10 -14 -4 -9 -9 3 -16 10 -16 15 0 13 6 11 20 -6z
m30 -116 c0 -24 -23 -21 -28 4 -2 10 3 17 12 17 10 0 16 -9 16 -21z m114 -125
c20 -8 21 -57 2 -74 -24 -19 -59 -8 -66 20 -13 52 13 74 64 54z m271 -214 c7
-12 -12 -40 -26 -40 -10 0 -12 34 -2 43 9 10 21 9 28 -3z m-225 -150 c0 -5 -2
-10 -4 -10 -3 0 -8 5 -11 10 -3 6 -1 10 4 10 6 0 11 -4 11 -10z m-123 -272
c-3 -8 -6 -5 -6 6 -1 11 2 17 5 13 3 -3 4 -12 1 -19z m71 -1 c2 -12 -3 -17
-17 -17 -15 0 -21 6 -21 21 0 25 33 22 38 -4z m2 -297 c0 -11 -4 -20 -9 -20
-14 0 -23 18 -16 30 10 17 25 11 25 -10z m1052 -151 c29 -11 105 -31 170 -45
65 -13 152 -35 195 -49 78 -25 238 -113 238 -131 0 -14 -64 -17 -130 -4 -33 6
-127 31 -210 54 -150 43 -305 76 -361 76 -33 0 -54 15 -54 39 0 8 -8 23 -17
35 -18 19 -18 19 7 3 13 -9 33 -17 44 -17 10 0 33 -9 50 -19 30 -19 86 -19 86
-1 0 5 -25 18 -55 31 -54 22 -73 49 -35 49 10 0 43 -9 72 -21z m-952 -123 c0
-3 -4 -8 -10 -11 -5 -3 -10 -1 -10 4 0 6 5 11 10 11 6 0 10 -2 10 -4z m595
-296 c3 -5 1 -10 -4 -10 -6 0 -11 5 -11 10 0 6 2 10 4 10 3 0 8 -4 11 -10z
m-308 -106 c-3 -3 -12 -4 -19 -1 -8 3 -5 6 6 6 11 1 17 -2 13 -5z m104 -87
c-18 -18 -38 8 -21 28 12 15 14 15 23 0 6 -11 5 -21 -2 -28z"/>
<path d="M7190 6511 c0 -6 4 -13 10 -16 6 -3 7 1 4 9 -7 18 -14 21 -14 7z"/>
<path d="M8600 6454 c0 -8 5 -12 10 -9 6 3 10 10 10 16 0 5 -4 9 -10 9 -5 0
-10 -7 -10 -16z"/>
<path d="M7250 6307 c0 -3 9 -22 21 -41 25 -42 46 -49 25 -8 -14 27 -46 61
-46 49z"/>
<path d="M7330 6281 c0 -5 5 -13 10 -16 6 -3 10 -2 10 4 0 5 -4 13 -10 16 -5
3 -10 2 -10 -4z"/>
<path d="M7350 6221 c0 -10 30 -24 37 -17 3 2 -5 9 -16 16 -12 6 -21 7 -21 1z"/>
<path d="M7620 6210 c0 -5 7 -7 15 -4 8 4 15 8 15 10 0 2 -7 4 -15 4 -8 0 -15
-4 -15 -10z"/>
<path d="M7673 6155 c-3 -9 -3 -18 -1 -21 3 -3 8 4 11 16 6 23 -1 27 -10 5z"/>
<path d="M7300 6081 c0 -16 51 -71 66 -71 11 0 12 4 4 19 -12 24 -70 66 -70
52z"/>
<path d="M8650 6060 c-12 -7 -11 -10 5 -16 11 -4 23 -12 27 -18 4 -7 27 -4 65
9 44 14 52 20 35 23 -13 2 -37 -2 -53 -9 -16 -6 -32 -9 -36 -5 -3 3 -1 6 5 6
7 0 12 5 12 10 0 13 -40 13 -60 0z"/>
<path d="M7450 5716 c0 -3 6 -11 13 -18 7 -7 18 -24 24 -38 11 -24 12 -25 12
-2 1 12 -8 31 -19 42 -19 19 -30 25 -30 16z"/>
<path d="M7480 5518 l-1 -33 -14 30 c-14 30 -14 30 -9 -15 3 -25 12 -64 20
-87 14 -38 17 -40 42 -34 31 9 31 31 1 69 -10 14 -19 40 -19 58 0 18 -4 36
-10 39 -6 4 -10 -7 -10 -27z"/>
<path d="M7551 5444 c0 -11 3 -14 6 -6 3 7 2 16 -1 19 -3 4 -6 -2 -5 -13z"/>
<path d="M7511 5300 c0 -14 4 -33 8 -43 6 -18 8 -18 21 -2 9 11 10 19 4 23 -6
4 -16 16 -22 27 -11 19 -11 19 -11 -5z"/>
<path d="M7587 5250 c6 -22 23 -38 23 -21 0 17 -12 41 -20 41 -5 0 -6 -9 -3
-20z"/>
<path d="M7577 4854 c-3 -6 -9 -25 -12 -42 -3 -18 -14 -47 -25 -64 -29 -49
-25 -81 15 -124 19 -20 37 -35 40 -33 2 3 6 18 9 34 3 17 10 46 16 65 12 41
12 48 2 35 -4 -5 -24 -26 -45 -45 l-38 -35 4 39 c2 21 11 44 19 50 8 6 18 24
22 41 4 16 13 33 19 37 9 6 9 10 1 16 -6 4 -13 14 -16 22 -3 8 -7 10 -11 4z"/>
<path d="M7674 4685 c4 -16 3 -24 0 -17 -3 6 -12 12 -19 12 -12 0 -11 -8 1
-50 8 -27 26 -73 39 -102 14 -29 25 -64 25 -77 0 -13 3 -21 7 -18 12 13 3 147
-13 199 -20 63 -49 102 -40 53z"/>
<path d="M7630 3955 c-12 -22 -10 -29 14 -65 14 -22 28 -40 30 -40 2 0 3 22 2
49 0 27 -5 47 -10 44 -4 -3 -5 4 -1 16 9 30 -18 27 -35 -4z"/>
<path d="M7285 3384 c-23 -10 -25 -13 -10 -13 21 -1 53 15 45 22 -3 2 -18 -2
-35 -9z"/>
<path d="M7187 3199 c-21 -12 -22 -25 -1 -33 9 -4 13 -2 8 5 -4 6 0 15 7 20
20 12 7 19 -14 8z"/>
<path d="M10145 2864 c-11 -1 -74 -8 -140 -14 -165 -17 -227 -45 -157 -71 30
-12 107 -7 192 11 47 11 76 14 183 19 12 1 17 9 17 31 0 28 -2 30 -37 29 -21
-1 -47 -3 -58 -5z"/>
<path d="M10130 2754 c-56 -9 -100 -26 -100 -38 0 -17 24 -23 128 -32 l82 -7
0 35 c0 47 -22 55 -110 42z"/>
<path d="M9088 2713 c7 -3 16 -2 19 1 4 3 -2 6 -13 5 -11 0 -14 -3 -6 -6z"/>
<path d="M9540 2690 c0 -5 5 -10 10 -10 6 0 10 5 10 10 0 6 -4 10 -10 10 -5 0
-10 -4 -10 -10z"/>
<path d="M8870 2680 c-13 -9 -13 -11 0 -20 19 -12 57 -13 65 -1 3 6 -3 15 -14
20 -24 13 -32 13 -51 1z"/>
<path d="M9485 2681 c-3 -5 -1 -12 5 -16 5 -3 10 1 10 9 0 18 -6 21 -15 7z"/>
<path d="M9865 2650 c-3 -5 1 -10 10 -10 9 0 13 5 10 10 -3 6 -8 10 -10 10 -2
0 -7 -4 -10 -10z"/>
<path d="M1485 2640 c-4 -6 3 -10 14 -10 25 0 27 6 6 13 -8 4 -17 2 -20 -3z"/>
<path d="M8715 2640 c4 -6 11 -8 16 -5 14 9 11 15 -7 15 -8 0 -12 -5 -9 -10z"/>
<path d="M9940 2643 c0 -16 35 -30 55 -22 11 4 18 8 15 9 -3 1 -12 3 -20 5 -8
2 -23 6 -32 10 -10 4 -18 3 -18 -2z"/>
<path d="M2355 2630 c-7 -12 13 -21 50 -24 14 0 27 -7 30 -13 6 -18 35 -16 35
1 0 20 -10 25 -51 28 -19 1 -39 5 -46 10 -6 5 -14 5 -18 -2z"/>
<path d="M9667 2621 c3 -14 -3 -21 -27 -30 -28 -9 -31 -13 -20 -26 21 -25 116
-15 167 18 7 4 21 2 31 -4 25 -15 51 -6 48 17 -4 26 -56 41 -70 22 -15 -21
-120 -13 -112 8 3 8 -1 14 -8 14 -9 0 -12 -7 -9 -19z"/>
<path d="M2156 2621 c-50 -5 -57 -8 -44 -19 13 -10 30 -10 87 -1 39 7 68 16
65 20 -5 9 -11 9 -108 0z"/>
<path d="M2285 2620 c-8 -13 15 -13 35 0 12 8 11 10 -7 10 -12 0 -25 -4 -28
-10z"/>
<path d="M2740 2609 c-28 -9 -54 -19 -57 -23 -18 -18 159 6 180 25 18 15 -75
14 -123 -2z"/>
<path d="M2046 2613 c-4 -5 -13 -8 -18 -8 -6 0 -13 -6 -15 -12 -7 -20 54 -16
61 3 3 9 6 18 6 20 0 7 -26 4 -34 -3z"/>
<path d="M8630 2565 c-14 -17 -67 -45 -85 -45 -7 0 -15 -7 -19 -15 -3 -8 -14
-15 -24 -15 -10 0 -29 -12 -43 -26 l-24 -27 23 6 c13 3 28 -1 36 -9 17 -16 36
-18 36 -4 0 6 19 10 43 10 23 0 48 4 56 9 8 5 27 3 48 -5 30 -13 38 -13 64 0
16 8 31 11 34 6 3 -4 15 -6 27 -2 21 5 21 6 2 13 -17 7 -16 8 6 8 18 1 21 4
12 10 -11 6 -10 10 4 15 24 9 9 20 -55 41 -29 10 -65 24 -80 31 -33 18 -46 18
-61 -1z"/>
<path d="M10028 2543 c6 -2 18 -2 25 0 6 3 1 5 -13 5 -14 0 -19 -2 -12 -5z"/>
<path d="M8906 2508 c-18 -18 -40 -32 -49 -30 -10 2 -17 -2 -17 -8 0 -7 17
-11 48 -9 26 1 52 0 58 -3 5 -3 44 -6 86 -6 64 0 80 3 94 19 14 16 15 19 3 14
-9 -3 -22 1 -29 10 -7 8 -23 15 -37 15 -14 0 -22 4 -18 10 4 7 -2 9 -18 5 -14
-4 -28 -2 -31 4 -14 22 -58 11 -90 -21z"/>
<path d="M9890 2510 c0 -5 13 -10 29 -10 17 0 33 5 36 10 4 6 -8 10 -29 10
-20 0 -36 -4 -36 -10z"/>
<path d="M9285 2480 c3 -5 11 -10 16 -10 6 0 7 5 4 10 -3 6 -11 10 -16 10 -6
0 -7 -4 -4 -10z"/>
<path d="M9420 2440 c0 -5 9 -10 21 -10 11 0 17 5 14 10 -3 6 -13 10 -21 10
-8 0 -14 -4 -14 -10z"/>
<path d="M3313 2413 c9 -2 23 -2 30 0 6 3 -1 5 -18 5 -16 0 -22 -2 -12 -5z"/>
<path d="M3498 2413 c7 -3 16 -2 19 1 4 3 -2 6 -13 5 -11 0 -14 -3 -6 -6z"/>
<path d="M8538 2373 c-18 -23 9 -43 59 -43 27 0 42 4 38 10 -3 6 1 7 9 4 9 -3
16 -10 16 -15 0 -5 9 -9 20 -9 24 0 70 21 70 32 0 8 -2 9 -35 13 -11 1 -40 5
-65 9 -80 13 -101 12 -112 -1z"/>
<path d="M8775 2360 c-3 -5 -1 -10 4 -10 6 0 11 5 11 10 0 6 -2 10 -4 10 -3 0
-8 -4 -11 -10z"/>
<path d="M7270 2350 c-12 -8 -9 -10 13 -10 16 0 26 4 22 10 -8 12 -16 12 -35
0z"/>
<path d="M7988 2353 c7 -3 16 -2 19 1 4 3 -2 6 -13 5 -11 0 -14 -3 -6 -6z"/>
<path d="M8090 2329 c0 -5 5 -7 10 -4 6 3 10 8 10 11 0 2 -4 4 -10 4 -5 0 -10
-5 -10 -11z"/>
<path d="M7088 2313 c6 -2 18 -2 25 0 6 3 1 5 -13 5 -14 0 -19 -2 -12 -5z"/>
<path d="M7130 2312 c0 -5 14 -12 31 -16 49 -10 119 -7 119 5 0 5 -4 7 -10 4
-5 -3 -10 -2 -10 2 0 5 -29 10 -65 11 -36 2 -65 -1 -65 -6z"/>
<path d="M7025 2300 c3 -5 23 -10 43 -9 33 1 34 2 12 9 -36 12 -62 12 -55 0z"/>
<path d="M8100 2299 c0 -5 5 -7 10 -4 6 3 10 8 10 11 0 2 -4 4 -10 4 -5 0 -10
-5 -10 -11z"/>
<path d="M7357 2289 c7 -7 15 -10 18 -7 3 3 -2 9 -12 12 -14 6 -15 5 -6 -5z"/>
<path d="M7636 2291 c-3 -5 6 -8 19 -8 14 0 25 3 25 8 0 5 -9 9 -19 9 -11 0
-22 -4 -25 -9z"/>
<path d="M7965 2290 c-4 -6 11 -7 42 -3 63 8 67 13 10 13 -25 0 -49 -4 -52
-10z"/>
<path d="M7433 2283 c9 -2 23 -2 30 0 6 3 -1 5 -18 5 -16 0 -22 -2 -12 -5z"/>
<path d="M7700 2280 c0 -5 7 -10 15 -10 8 0 15 5 15 10 0 6 -7 10 -15 10 -8 0
-15 -4 -15 -10z"/>
<path d="M7871 2286 c11 -9 69 -14 69 -6 0 6 -16 10 -37 10 -20 0 -34 -2 -32
-4z"/>
<path d="M7295 2260 c3 -5 8 -10 11 -10 2 0 4 5 4 10 0 6 -5 10 -11 10 -5 0
-7 -4 -4 -10z"/>
<path d="M8105 2250 c27 -12 43 -12 25 0 -8 5 -22 9 -30 9 -10 0 -8 -3 5 -9z"/>
<path d="M7460 2229 c0 -5 5 -7 10 -4 6 3 10 8 10 11 0 2 -4 4 -10 4 -5 0 -10
-5 -10 -11z"/>
<path d="M8070 2230 c-9 -6 -10 -10 -3 -10 6 0 15 5 18 10 8 12 4 12 -15 0z"/>
<path d="M8238 2233 c7 -3 16 -2 19 1 4 3 -2 6 -13 5 -11 0 -14 -3 -6 -6z"/>
<path d="M8005 2210 c-4 -6 -24 -8 -48 -4 -39 5 -41 4 -23 -10 22 -18 66 -22
66 -6 0 6 6 10 14 10 8 0 18 5 21 10 3 6 -1 10 -9 10 -8 0 -18 -5 -21 -10z"/>
<path d="M8121 2194 c-12 -15 -10 -15 20 -9 54 12 70 24 29 24 -19 0 -41 -7
-49 -15z"/>
<path d="M8225 2190 c3 -5 10 -10 16 -10 5 0 9 5 9 10 0 6 -7 10 -16 10 -8 0
-12 -4 -9 -10z"/>
<path d="M8288 2173 c7 -3 16 -2 19 1 4 3 -2 6 -13 5 -11 0 -14 -3 -6 -6z"/>
<path d="M7750 2159 c0 -5 5 -7 10 -4 6 3 10 8 10 11 0 2 -4 4 -10 4 -5 0 -10
-5 -10 -11z"/>
<path d="M7938 2163 c7 -3 16 -2 19 1 4 3 -2 6 -13 5 -11 0 -14 -3 -6 -6z"/>
<path d="M7810 2150 c0 -5 9 -10 21 -10 11 0 17 5 14 10 -3 6 -13 10 -21 10
-8 0 -14 -4 -14 -10z"/>
<path d="M7885 2150 c-3 -5 1 -10 10 -10 9 0 13 5 10 10 -3 6 -8 10 -10 10 -2
0 -7 -4 -10 -10z"/>
<path d="M8219 2148 c-1 -7 -1 -17 0 -22 1 -5 -4 -13 -11 -18 -14 -9 27 -3 75
12 15 5 34 7 42 4 8 -4 15 -2 15 4 0 13 -64 25 -68 12 -5 -14 -33 -13 -29 1 1
6 -4 14 -10 16 -7 3 -14 -1 -14 -9z"/>
<path d="M8355 2120 c-3 -5 -2 -10 4 -10 5 0 13 5 16 10 3 6 2 10 -4 10 -5 0
-13 -4 -16 -10z"/>
</g>
</svg>
